<svg width="860" height="519" viewBox="0 0 860 519" fill="none" xmlns="http://www.w3.org/2000/svg">
<g clip-path="url(#clip0)">
<g opacity="0.2" filter="url(#filter0_ii)">
<path d="M639 200C694.228 200 739 155.228 739 100C739 44.7715 694.228 0 639 0C583.772 0 539 44.7715 539 100C539 155.228 583.772 200 639 200Z" fill="#0A8B9A"/>
</g>
<g opacity="0.2" filter="url(#filter1_ii)">
<path d="M639.001 170.423C677.894 170.423 709.423 138.893 709.423 100C709.423 61.1069 677.894 29.5776 639.001 29.5776C600.107 29.5776 568.578 61.1069 568.578 100C568.578 138.893 600.107 170.423 639.001 170.423Z" fill="#0A8B9A"/>
</g>
<g filter="url(#filter2_ii)">
<path d="M639 146.478C664.67 146.478 685.479 125.669 685.479 99.9994C685.479 74.3298 664.67 53.5205 639 53.5205C613.331 53.5205 592.521 74.3298 592.521 99.9994C592.521 125.669 613.331 146.478 639 146.478Z" fill="#0A8B9A"/>
</g>
<g filter="url(#filter3_i)">
<path opacity="0.1" d="M661.503 84.6609H656.996V75.9065C656.996 66.0279 649.12 57.8157 639.241 57.666C636.859 57.641 634.496 58.0876 632.287 58.9802C630.078 59.8728 628.068 61.1936 626.372 62.8666C624.676 64.5396 623.328 66.5317 622.406 68.728C621.483 70.9243 621.005 73.2815 620.997 75.6637V84.6609H616.5C614.513 84.667 612.609 85.4592 611.204 86.8645C609.798 88.2698 609.006 90.174 609 92.1613V128.157C609.006 130.144 609.798 132.048 611.204 133.453C612.609 134.859 614.513 135.651 616.5 135.657H661.503C663.49 135.651 665.394 134.859 666.799 133.453C668.203 132.048 668.995 130.144 669 128.157V92.1613C668.995 90.1743 668.203 88.2701 666.799 86.8647C665.394 85.4593 663.49 84.667 661.503 84.6609ZM641.629 108.06V120.952C641.634 121.635 641.378 122.294 640.915 122.795C640.452 123.297 639.816 123.603 639.135 123.653C638.779 123.67 638.424 123.614 638.091 123.49C637.758 123.365 637.453 123.174 637.195 122.929C636.938 122.683 636.733 122.388 636.593 122.06C636.453 121.733 636.381 121.381 636.381 121.025V108.054C635.164 107.46 634.184 106.472 633.601 105.25C633.018 104.028 632.867 102.645 633.171 101.326C633.476 100.007 634.218 98.8296 635.278 97.9869C636.337 97.1441 637.651 96.6853 639.005 96.6853C640.359 96.6853 641.673 97.1441 642.732 97.9869C643.792 98.8296 644.534 100.007 644.839 101.326C645.143 102.645 644.992 104.028 644.409 105.25C643.826 106.472 642.846 107.46 641.629 108.054V108.06ZM651.754 84.6609H626.246V75.6637C626.246 72.2825 627.589 69.0397 629.98 66.6488C632.371 64.2579 635.614 62.9147 638.995 62.9147C642.376 62.9147 645.619 64.2579 648.01 66.6488C650.401 69.0397 651.744 72.2825 651.744 75.6637L651.754 84.6609Z" fill="black"/>
<path d="M661.503 83.9959H656.996V75.2415C656.996 65.3629 649.12 57.1507 639.241 57.001C636.859 56.976 634.496 57.4226 632.287 58.3152C630.078 59.2077 628.068 60.5286 626.372 62.2016C624.676 63.8745 623.328 65.8666 622.406 68.063C621.483 70.2593 621.005 72.6165 620.997 74.9987V83.9959H616.5C614.513 84.002 612.609 84.7942 611.204 86.1995C609.798 87.6047 609.006 89.5089 609 91.4963V127.492C609.006 129.479 609.798 131.383 611.204 132.788C612.609 134.194 614.513 134.986 616.5 134.992H661.503C663.49 134.986 665.394 134.194 666.799 132.788C668.203 131.383 668.995 129.479 669 127.492V91.4963C668.995 89.5092 668.203 87.605 666.799 86.1997C665.394 84.7943 663.49 84.002 661.503 83.9959ZM641.629 107.395V120.287C641.634 120.97 641.378 121.629 640.915 122.13C640.452 122.632 639.816 122.938 639.135 122.988C638.779 123.005 638.424 122.949 638.091 122.825C637.758 122.7 637.453 122.509 637.195 122.263C636.938 122.018 636.733 121.723 636.593 121.395C636.453 121.068 636.381 120.716 636.381 120.36V107.389C635.164 106.795 634.184 105.807 633.601 104.585C633.018 103.363 632.867 101.98 633.171 100.661C633.476 99.3415 634.218 98.1646 635.278 97.3218C636.337 96.4791 637.651 96.0203 639.005 96.0203C640.359 96.0203 641.673 96.4791 642.732 97.3218C643.792 98.1646 644.534 99.3415 644.839 100.661C645.143 101.98 644.992 103.363 644.409 104.585C643.826 105.807 642.846 106.795 641.629 107.389V107.395ZM651.754 83.9959H626.246V74.9987C626.246 71.6174 627.589 68.3746 629.98 65.9837C632.371 63.5928 635.614 62.2496 638.995 62.2496C642.376 62.2496 645.619 63.5928 648.01 65.9837C650.401 68.3746 651.744 71.6174 651.744 74.9987L651.754 83.9959Z" fill="white"/>
</g>
<g filter="url(#filter4_i)">
<path d="M822.644 369.174H819.744V434.472H822.644V369.174Z" fill="#74B028"/>
</g>
<g filter="url(#filter5_i)">
<path d="M840.87 434.273L840.686 437.213L840.431 441.364L840.324 443.095L840.069 447.251L839.956 448.981L839.701 453.132L836.776 500.342C836.651 502.374 835.756 504.281 834.273 505.676C832.79 507.07 830.831 507.847 828.796 507.847H813.592C811.557 507.847 809.599 507.07 808.117 505.675C806.635 504.281 805.741 502.373 805.617 500.342L802.677 453.132L802.421 448.981L802.314 447.251L802.064 443.085L801.957 441.354L801.701 437.203L801.518 434.262C801.483 433.698 801.564 433.133 801.756 432.601C801.948 432.069 802.247 431.582 802.635 431.17C803.022 430.758 803.49 430.43 804.009 430.206C804.528 429.982 805.088 429.866 805.653 429.867H836.74C837.306 429.866 837.866 429.982 838.386 430.207C838.906 430.432 839.374 430.761 839.761 431.174C840.148 431.587 840.446 432.075 840.637 432.608C840.828 433.141 840.907 433.708 840.87 434.273Z" fill="#691419"/>
</g>
<g filter="url(#filter6_i)">
<path d="M840.686 437.213L840.431 441.364H801.952L801.696 437.213H840.686Z" fill="#9D9CB5"/>
</g>
<g filter="url(#filter7_i)">
<path d="M840.324 443.095L840.068 447.251H802.319L802.059 443.095H840.324Z" fill="#9D9CB5"/>
</g>
<g filter="url(#filter8_i)">
<path d="M839.956 448.981L839.7 453.132H802.686L802.426 448.981H839.956Z" fill="#9D9CB5"/>
</g>
<g filter="url(#filter9_i)">
<path d="M797.27 393.649C814.158 405.866 821.194 424.981 821.194 424.981C821.194 424.981 800.838 424.281 783.924 412.064C767.01 399.847 760 380.732 760 380.732C760 380.732 780.376 381.431 797.27 393.649Z" fill="#0F693E"/>
</g>
<g filter="url(#filter10_i)">
<path d="M760.025 380.732C760.025 380.732 781.152 392.474 787.927 402.175C794.701 411.875 821.193 424.986 821.193 424.986" stroke="#74B028" stroke-width="2" stroke-miterlimit="10"/>
</g>
<g filter="url(#filter11_i)">
<path d="M808.17 369.056C817.36 375.693 821.194 386.108 821.194 386.108C821.194 386.108 810.115 385.73 800.92 379.078C791.725 372.426 787.901 362.026 787.901 362.026C787.901 362.026 798.98 362.378 808.17 369.056Z" fill="#0F693E"/>
</g>
<g filter="url(#filter12_i)">
<path d="M787.901 362C787.901 362 799.399 368.382 803.085 373.666C806.771 378.95 821.194 386.082 821.194 386.082" stroke="#74B028" stroke-width="2" stroke-miterlimit="10"/>
</g>
<g filter="url(#filter13_i)">
<path d="M834.555 385.556C823.992 397.161 821.761 412.324 821.761 412.324C821.761 412.324 836.648 408.674 847.206 397.069C857.764 385.465 860 370.296 860 370.296C860 370.296 845.113 373.947 834.555 385.556Z" fill="#0F693E"/>
</g>
<g filter="url(#filter14_i)">
<path d="M860 370.296C860 370.296 846.246 382.192 842.749 390.391C839.252 398.591 821.761 412.345 821.761 412.345" stroke="#74B028" stroke-width="2" stroke-miterlimit="10"/>
</g>
<path d="M749.389 287H86.611C83.7968 287 81.0978 287.857 79.1079 289.383C77.118 290.908 76 292.977 76 295.135C76 297.292 77.118 299.361 79.1079 300.886C81.0978 302.412 83.7968 303.269 86.611 303.269H105.384V497.866C105.384 500.023 106.502 502.092 108.492 503.618C110.482 505.143 113.181 506 115.995 506C118.81 506 121.508 505.143 123.498 503.618C125.488 502.092 126.606 500.023 126.606 497.866L126.768 303.269H658.714L707.761 497.866C707.761 500.023 708.879 502.092 710.869 503.618C712.859 505.143 715.558 506 718.372 506C721.187 506 723.885 505.143 725.875 503.618C727.865 502.092 728.983 500.023 728.983 497.866L732.07 303.269H749.389C752.203 303.269 754.902 302.412 756.892 300.886C758.882 299.361 760 297.292 760 295.135C760 292.977 758.882 290.908 756.892 289.383C754.902 287.857 752.203 287 749.389 287Z" fill="url(#paint0_linear)"/>
<g filter="url(#filter15_i)">
<path d="M290.538 396.102V362.137C290.538 360.635 289.941 359.195 288.88 358.134C287.818 357.072 286.378 356.476 284.877 356.476H156.092C154.591 356.476 153.151 357.072 152.09 358.134C151.028 359.195 150.432 360.635 150.432 362.137V396.102H290.538Z" fill="url(#paint1_linear)"/>
</g>
<g filter="url(#filter16_i)">
<path d="M290.537 408.839H150.431V452.711H290.537V408.839Z" fill="url(#paint2_linear)"/>
</g>
<g filter="url(#filter17_i)">
<path d="M150.432 465.448V499.413C150.432 500.914 151.028 502.354 152.09 503.415C153.151 504.477 154.591 505.073 156.092 505.073H284.877C286.378 505.073 287.818 504.477 288.88 503.415C289.941 502.354 290.538 500.914 290.538 499.413V465.448H150.432Z" fill="url(#paint3_linear)"/>
</g>
<path d="M219.777 381.95C222.122 381.95 224.023 380.049 224.023 377.704C224.023 375.359 222.122 373.458 219.777 373.458C217.432 373.458 215.531 375.359 215.531 377.704C215.531 380.049 217.432 381.95 219.777 381.95Z" fill="white"/>
<path d="M219.777 438.558C222.122 438.558 224.023 436.657 224.023 434.312C224.023 431.967 222.122 430.067 219.777 430.067C217.432 430.067 215.531 431.967 215.531 434.312C215.531 436.657 217.432 438.558 219.777 438.558Z" fill="white"/>
<path d="M220.003 493.968C222.348 493.968 224.249 492.067 224.249 489.722C224.249 487.378 222.348 485.477 220.003 485.477C217.659 485.477 215.758 487.378 215.758 489.722C215.758 492.067 217.659 493.968 220.003 493.968Z" fill="white"/>
<g filter="url(#filter18_i)">
<path d="M491.637 285.374L486.942 283.397L483.721 259.861H440.832L437.341 283.301L433.141 285.401C432.94 285.501 432.779 285.667 432.684 285.87C432.589 286.074 432.565 286.303 432.617 286.522C432.668 286.741 432.792 286.936 432.968 287.075C433.144 287.215 433.363 287.29 433.587 287.29H491.25C491.48 287.29 491.704 287.211 491.882 287.065C492.06 286.919 492.182 286.716 492.228 286.49C492.273 286.265 492.239 286.03 492.132 285.827C492.024 285.623 491.849 285.463 491.637 285.374Z" fill="#E6E6E6"/>
</g>
<g filter="url(#filter19_i)">
<path d="M567.853 262.992H357.171C356.065 262.99 355.006 262.549 354.225 261.767C353.444 260.984 353.006 259.924 353.006 258.818V229.109H572.018V258.818C572.018 259.924 571.58 260.984 570.799 261.767C570.018 262.549 568.959 262.99 567.853 262.992Z" fill="#CCCCCC"/>
</g>
<g filter="url(#filter20_i)">
<path d="M572.238 243.15H352.813V116.032C352.815 114.698 353.346 113.419 354.289 112.475C355.232 111.532 356.511 111.001 357.845 111H567.206C568.54 111.001 569.819 111.532 570.763 112.475C571.706 113.419 572.237 114.698 572.238 116.032L572.238 243.15Z" fill="#3F3D56"/>
</g>
<g filter="url(#filter21_ii)">
<path d="M559.132 233.924H365.918C364.89 233.923 363.904 233.513 363.177 232.786C362.449 232.059 362.04 231.073 362.039 230.045V124.105C362.04 123.076 362.449 122.09 363.176 121.363C363.904 120.636 364.89 120.227 365.918 120.226H559.132C560.161 120.227 561.147 120.636 561.874 121.363C562.601 122.09 563.01 123.076 563.011 124.105V230.045C563.01 231.073 562.601 232.059 561.874 232.786C561.147 233.513 560.161 233.923 559.132 233.924Z" fill="white"/>
</g>
<g filter="url(#filter22_i)">
<path d="M656.096 366.38H612.177C612.177 368.262 564.167 369.789 564.167 369.789C563.108 370.587 562.143 371.502 561.29 372.517C558.727 375.573 557.327 379.437 557.335 383.426V386.153C557.337 390.673 559.133 395.008 562.329 398.204C565.526 401.401 569.86 403.197 574.381 403.199H656.096C660.615 403.195 664.949 401.398 668.144 398.202C671.34 395.006 673.137 390.673 673.141 386.153V383.426C673.135 378.907 671.337 374.575 668.142 371.38C664.947 368.184 660.615 366.386 656.096 366.38Z" fill="#8CB1BD"/>
</g>
<g filter="url(#filter23_i)">
<path d="M624.158 402.522H606.431V504.846H624.158V402.522Z" fill="#B5B2B2"/>
</g>
<g filter="url(#filter24_i)">
<path d="M555.976 504.223C555.976 506.138 582.839 504.964 615.976 504.964C649.114 504.964 675.977 506.138 675.977 504.223C675.977 502.307 649.114 487.118 615.976 487.118C582.839 487.118 555.976 502.307 555.976 504.223Z" fill="#B5B2B2"/>
</g>
<g filter="url(#filter25_i)">
<path d="M498.856 278.69C499.933 277.695 501.215 276.948 502.612 276.503C504.009 276.057 505.487 275.923 506.941 276.11C508.396 276.297 509.791 276.801 511.03 277.585C512.269 278.37 513.32 279.417 514.11 280.652L536.678 276.64L542.461 289.76L510.512 294.978C508.349 296.168 505.824 296.523 503.417 295.977C501.009 295.43 498.886 294.019 497.449 292.011C496.012 290.004 495.362 287.539 495.621 285.083C495.88 282.628 497.031 280.353 498.856 278.69Z" fill="#FFB6B6"/>
</g>
<g filter="url(#filter26_i)">
<path d="M519.75 295.442L543.277 295.149L546.255 295.108L594.122 294.505C594.122 294.505 607.12 282.104 618.439 269.337L616.852 257.862C615.305 246.601 609.719 236.286 601.133 228.836C584.922 239.668 575.521 261.108 575.521 261.108L545.842 268.207L542.873 268.917L524.432 273.324L519.75 295.442Z" fill="url(#paint4_linear)"/>
</g>
<g filter="url(#filter27_i)">
<path d="M528.166 492.112L514.973 492.111L508.697 441.226L528.168 441.226L528.166 492.112Z" fill="#FFB6B6"/>
</g>
<path d="M531.531 504.9L488.992 504.899V504.361C488.992 499.97 490.737 495.758 493.842 492.653C496.947 489.548 501.158 487.804 505.549 487.804H505.55L531.532 487.805L531.531 504.9Z" fill="#2F2E41"/>
<g filter="url(#filter28_i)">
<path d="M489.175 492.112L475.982 492.111L469.706 441.226L489.177 441.226L489.175 492.112Z" fill="#FFB6B6"/>
</g>
<path d="M492.539 504.9L450 504.899V504.361C450 499.97 451.745 495.758 454.85 492.653C457.955 489.548 462.166 487.804 466.557 487.804H466.558L492.539 487.805L492.539 504.9Z" fill="#2F2E41"/>
<g filter="url(#filter29_i)">
<path d="M607.35 199.157C620.019 199.157 630.289 188.887 630.289 176.219C630.289 163.55 620.019 153.28 607.35 153.28C594.682 153.28 584.412 163.55 584.412 176.219C584.412 188.887 594.682 199.157 607.35 199.157Z" fill="#FFB6B6"/>
</g>
<g filter="url(#filter30_i)">
<path d="M587.283 316.326L574.475 329.174C574.475 329.174 481.998 344.07 478.431 365.429C473.044 397.676 466.683 467.8 466.683 467.8L494.487 465.715L505.39 386.003L549.876 375.884L600.489 348.301L587.283 316.326Z" fill="#2F2E41"/>
</g>
<path d="M629.424 162.526C627.16 158.254 624.282 149.739 619.712 148.16C617.174 147.319 614.551 146.76 611.89 146.494L604.122 149.482L608.35 146.193C607.527 146.144 606.704 146.104 605.882 146.073L600.64 148.089L603.322 146.003C598.435 145.953 593.391 146.461 589.605 149.436C586.377 151.972 583.179 161.579 582.662 165.651C582.109 169.546 582.303 173.511 583.232 177.334L584.56 178.597C585.024 177.532 585.373 176.421 585.601 175.282C586.077 173.154 586.991 171.148 588.285 169.393C589.579 167.638 591.224 166.171 593.116 165.087L593.188 165.046C595.414 163.793 598.116 163.851 600.669 163.943L612.794 164.379C615.711 164.484 618.852 164.669 621.126 166.498C622.572 167.848 623.708 169.495 624.458 171.325C625.588 173.606 627.797 182.209 627.797 182.209C627.797 182.209 629.046 180.585 629.645 181.793C630.605 178.64 631.189 175.384 631.384 172.093C631.575 168.788 630.9 165.49 629.424 162.526Z" fill="#2F2E41"/>
<g filter="url(#filter31_i)">
<path d="M598.783 337.176C590.533 334.327 582.002 331.38 572.801 330.274L572.405 330.226L572.514 329.843C582.04 296.399 579.662 275.005 574.994 242.868C574.002 235.936 575.277 228.869 578.631 222.722C581.984 216.574 587.236 211.676 593.601 208.758L593.658 208.733L619.938 207.063L619.998 207.059L639.112 212.68C641.861 213.495 644.268 215.189 645.962 217.502C647.657 219.815 648.547 222.62 648.496 225.487C648.288 236.056 648.728 247.856 649.192 260.348C650.235 288.374 651.314 317.354 645.194 336.157L645.162 336.256L645.08 336.32C639.454 340.902 632.405 343.378 625.15 343.321C616.571 343.321 607.816 340.297 598.783 337.176Z" fill="url(#paint5_linear)"/>
</g>
<g filter="url(#filter32_i)">
<path d="M523.593 298.696C524.565 297.598 525.767 296.727 527.112 296.145C528.458 295.562 529.915 295.281 531.381 295.322C532.846 295.363 534.285 295.725 535.596 296.383C536.907 297.04 538.058 297.977 538.967 299.127L561.022 292.884L568.084 305.362L536.815 313.74C534.781 315.14 532.305 315.745 529.855 315.441C527.405 315.137 525.151 313.945 523.522 312.091C521.892 310.236 520.999 307.849 521.012 305.38C521.025 302.911 521.943 300.533 523.593 298.696Z" fill="#FFB6B6"/>
</g>
<g filter="url(#filter33_i)">
<path d="M551.58 310.8L618.984 295.552C618.984 295.552 623.614 272.799 625.275 254.127L608.441 235.892C604.536 231.66 599.886 228.183 594.723 225.635C577.634 243.237 584.639 278.767 584.639 278.767L544.069 295.718L551.58 310.8Z" fill="url(#paint6_linear)"/>
</g>
<g filter="url(#filter34_i)">
<path d="M644.476 333.383C644.476 333.383 652.173 374.081 622.889 379.263C593.605 384.446 551.333 388.088 551.333 388.088L532.35 476.656L506.847 474.379C506.847 474.379 510.239 367.763 518.58 359.422C526.921 351.081 579.64 326.105 579.64 326.105L644.476 333.383Z" fill="#2F2E41"/>
</g>
<path d="M844.778 508H1.22255C0.898307 508 0.587351 507.842 0.35808 507.561C0.128809 507.279 0 506.898 0 506.5C0 506.102 0.128809 505.721 0.35808 505.439C0.587351 505.158 0.898307 505 1.22255 505H844.778C845.102 505 845.413 505.158 845.642 505.439C845.871 505.721 846 506.102 846 506.5C846 506.898 845.871 507.279 845.642 507.561C845.413 507.842 845.102 508 844.778 508Z" fill="#CCCCCC"/>
<path d="M254.906 247.302C253.979 241.055 253.734 234.726 254.175 228.426L254.906 218C250.88 226.011 251.79 236.555 254.906 247.302V247.302Z" fill="#734949"/>
<path d="M258.045 249.046C257.598 245.319 257.481 241.559 257.693 237.811L258.045 231.604C256.108 236.373 256.546 242.649 258.045 249.046Z" fill="#734949"/>
<path d="M272 252.722V256.21C271.999 256.487 271.888 256.752 271.692 256.948C271.496 257.144 271.231 257.255 270.953 257.256H269.209C269.163 257.256 269.118 257.265 269.076 257.283C269.033 257.3 268.995 257.326 268.962 257.358C268.93 257.391 268.904 257.429 268.887 257.472C268.869 257.514 268.86 257.559 268.86 257.605V286.21C268.859 286.487 268.748 286.752 268.552 286.948C268.356 287.144 268.091 287.255 267.814 287.256H246.535C246.257 287.256 245.991 287.146 245.795 286.95C245.599 286.753 245.489 286.487 245.488 286.21V257.605C245.488 257.513 245.451 257.424 245.386 257.359C245.321 257.294 245.232 257.257 245.14 257.256H243.047C242.769 257.256 242.503 257.146 242.307 256.95C242.111 256.753 242 256.487 242 256.21V252.722C242 252.584 242.027 252.448 242.079 252.321C242.132 252.194 242.209 252.078 242.306 251.981C242.403 251.884 242.519 251.807 242.646 251.754C242.773 251.702 242.909 251.675 243.047 251.675H270.953C271.231 251.676 271.496 251.786 271.693 251.982C271.889 252.179 271.999 252.444 272 252.722Z" fill="#FFE8D6"/>
<path d="M268.861 273.388C261.04 276.625 253.134 276.661 245.14 273.388V266.016C252.835 263.431 261.165 263.431 268.861 266.016V273.388Z" fill="#FFC0C0"/>
<path d="M268.892 257.988H245.52V259.035H268.892V257.988Z" fill="#FFC0C0"/>
<path d="M185.164 192.163C190.235 192.163 194.345 188.052 194.345 182.982C194.345 177.911 190.235 173.8 185.164 173.8C180.093 173.8 175.982 177.911 175.982 182.982C175.982 188.052 180.093 192.163 185.164 192.163Z" fill="#2F2E41"/>
<path d="M187.722 174.054C189.311 174.054 190.873 174.467 192.254 175.251C193.636 176.036 194.791 177.165 195.605 178.53C196.42 179.894 196.866 181.446 196.901 183.035C196.936 184.624 196.558 186.194 195.804 187.593C196.6 186.597 197.18 185.446 197.507 184.214C197.833 182.981 197.9 181.694 197.702 180.435C197.503 179.175 197.045 177.971 196.356 176.899C195.666 175.826 194.761 174.909 193.698 174.206C192.634 173.502 191.436 173.028 190.179 172.814C188.922 172.599 187.635 172.649 186.398 172.959C185.162 173.27 184.003 173.834 182.997 174.617C181.991 175.4 181.159 176.384 180.554 177.507C181.412 176.429 182.502 175.559 183.743 174.961C184.984 174.363 186.344 174.053 187.722 174.054Z" fill="#2F2E41"/>
<path d="M168.007 182.963C182.902 182.963 194.977 170.888 194.977 155.993C194.977 141.097 182.902 129.022 168.007 129.022C153.111 129.022 141.036 141.097 141.036 155.993C141.036 170.888 153.111 182.963 168.007 182.963Z" fill="#2F2E41"/>
<path d="M146.839 139.259C151.487 134.032 157.983 130.816 164.957 130.288C171.93 129.76 178.836 131.963 184.217 136.431C183.997 136.221 183.778 136.01 183.549 135.806C178.203 131.057 171.189 128.626 164.05 129.047C156.912 129.468 150.233 132.707 145.481 138.051C140.73 143.396 138.296 150.409 138.714 157.547C139.132 164.686 142.368 171.367 147.711 176.12C147.94 176.324 148.175 176.516 148.409 176.71C143.342 171.89 140.346 165.289 140.053 158.302C139.76 151.314 142.193 144.486 146.839 139.259Z" fill="#2F2E41"/>
<g filter="url(#filter35_i)">
<path d="M167.779 182.734C177.373 182.734 185.15 174.957 185.15 165.364C185.15 155.77 177.373 147.993 167.779 147.993C158.185 147.993 150.408 155.77 150.408 165.364C150.408 174.957 158.185 182.734 167.779 182.734Z" fill="#FFB6B6"/>
</g>
<g filter="url(#filter36_i)">
<path d="M176.653 187.45L158.063 188.286C158.063 188.286 159.615 197.899 149.558 198.813C139.501 199.728 130.359 196.985 126.702 203.842C123.045 210.699 124.621 235.114 124.621 235.114C124.621 235.114 131.478 259.799 136.963 263.456C142.449 267.113 190.447 262.085 190.447 262.085L210.535 236.721L209.855 217.16C209.499 206.946 200.173 199.277 190.129 201.167C189.932 201.204 189.733 201.244 189.533 201.287C189.533 201.287 187.326 199.638 181.272 196.61C177.57 194.759 176.653 187.45 176.653 187.45Z" fill="#B3DA5F"/>
</g>
<path d="M136.302 198.356C136.302 198.356 140.72 206.373 138.891 217.801C137.063 229.229 144.735 253.4 144.735 253.4L150.22 252.028C150.22 252.028 146.563 228.258 147.478 222.772C148.392 217.287 148.644 201.099 144.073 198.356C139.502 195.614 136.302 198.356 136.302 198.356Z" fill="#2F2E41"/>
<path d="M189.211 202.56L191.133 253.171L194.79 255.457C194.79 255.457 200.047 199.916 197.304 199.916H191.723C191.393 199.916 191.066 199.981 190.761 200.107C190.456 200.234 190.178 200.419 189.945 200.652C189.711 200.886 189.526 201.163 189.399 201.468C189.273 201.774 189.208 202.101 189.208 202.431C189.208 202.474 189.209 202.517 189.211 202.56Z" fill="#2F2E41"/>
<path d="M147.249 252.257C148.511 252.257 149.534 251.234 149.534 249.971C149.534 248.709 148.511 247.686 147.249 247.686C145.986 247.686 144.963 248.709 144.963 249.971C144.963 251.234 145.986 252.257 147.249 252.257Z" fill="#6C63FF"/>
<path d="M192.961 254.543C194.224 254.543 195.247 253.52 195.247 252.258C195.247 250.995 194.224 249.972 192.961 249.972C191.699 249.972 190.676 250.995 190.676 252.258C190.676 253.52 191.699 254.543 192.961 254.543Z" fill="#6C63FF"/>
<path d="M152.922 143.649V161.02H156.945L162.065 155.535L161.379 161.02H179.161L178.064 155.535L180.258 161.02H183.092V143.649H152.922Z" fill="#2F2E41"/>
<path d="M150.179 164.221C150.936 164.221 151.55 163.095 151.55 161.707C151.55 160.318 150.936 159.192 150.179 159.192C149.422 159.192 148.808 160.318 148.808 161.707C148.808 163.095 149.422 164.221 150.179 164.221Z" fill="#FFB8B8"/>
<path d="M185.378 164.221C186.136 164.221 186.75 163.095 186.75 161.707C186.75 160.318 186.136 159.192 185.378 159.192C184.621 159.192 184.007 160.318 184.007 161.707C184.007 163.095 184.621 164.221 185.378 164.221Z" fill="#FFB8B8"/>
<g filter="url(#filter37_i)">
<path d="M223.426 282.492V284.023C223.427 284.444 223.349 284.86 223.196 285.252C223.129 285.427 223.047 285.595 222.952 285.757C222.651 286.261 222.224 286.679 221.714 286.969C221.203 287.259 220.625 287.412 220.038 287.411H107.388C106.801 287.412 106.223 287.259 105.712 286.969C105.202 286.679 104.775 286.261 104.474 285.757C104.379 285.595 104.297 285.426 104.23 285.252C104.077 284.86 103.999 284.444 104 284.023V282.492C104 282.047 104.087 281.607 104.257 281.196C104.428 280.785 104.677 280.411 104.991 280.097C105.306 279.782 105.679 279.533 106.09 279.362C106.501 279.192 106.941 279.104 107.386 279.104H113.881V278.39C113.881 278.372 113.885 278.353 113.892 278.336C113.899 278.319 113.909 278.304 113.922 278.29C113.936 278.277 113.951 278.267 113.968 278.26C113.985 278.253 114.004 278.249 114.022 278.249H117.411C117.448 278.249 117.484 278.264 117.51 278.29C117.537 278.317 117.552 278.352 117.552 278.39V279.104H119.668V278.39C119.668 278.372 119.672 278.353 119.679 278.336C119.686 278.319 119.696 278.304 119.709 278.291C119.723 278.277 119.738 278.267 119.755 278.26C119.772 278.253 119.791 278.249 119.809 278.249H123.198C123.235 278.249 123.271 278.264 123.297 278.29C123.324 278.317 123.339 278.352 123.339 278.39V279.104H125.458V278.39C125.458 278.372 125.461 278.353 125.469 278.336C125.476 278.319 125.486 278.304 125.499 278.291C125.512 278.277 125.528 278.267 125.545 278.26C125.562 278.253 125.58 278.249 125.599 278.249H128.987C129.024 278.249 129.06 278.264 129.087 278.29C129.113 278.317 129.128 278.352 129.128 278.39V279.104H131.245V278.39C131.245 278.372 131.248 278.353 131.256 278.336C131.263 278.319 131.273 278.304 131.286 278.291C131.299 278.277 131.315 278.267 131.332 278.26C131.349 278.253 131.367 278.249 131.386 278.249H134.774C134.811 278.249 134.847 278.264 134.874 278.29C134.9 278.317 134.915 278.352 134.915 278.39V279.104H137.032V278.39C137.032 278.372 137.035 278.353 137.043 278.336C137.05 278.319 137.06 278.304 137.073 278.291C137.086 278.277 137.102 278.267 137.119 278.26C137.136 278.253 137.154 278.249 137.173 278.249H140.561C140.599 278.249 140.634 278.264 140.661 278.29C140.687 278.317 140.702 278.352 140.702 278.39V279.104H142.821V278.39C142.821 278.372 142.825 278.353 142.832 278.336C142.839 278.319 142.849 278.304 142.863 278.291C142.876 278.277 142.891 278.267 142.908 278.26C142.925 278.253 142.944 278.249 142.962 278.249H146.351C146.388 278.249 146.424 278.264 146.45 278.29C146.477 278.317 146.492 278.352 146.492 278.39V279.104H148.608V278.39C148.608 278.372 148.612 278.353 148.619 278.336C148.626 278.319 148.636 278.304 148.65 278.291C148.663 278.277 148.678 278.267 148.695 278.26C148.712 278.253 148.731 278.249 148.749 278.249H175.288C175.307 278.249 175.325 278.253 175.342 278.26C175.359 278.267 175.375 278.277 175.388 278.29C175.401 278.303 175.412 278.319 175.419 278.336C175.426 278.353 175.429 278.371 175.43 278.39V279.104H177.549V278.39C177.549 278.372 177.552 278.353 177.559 278.336C177.566 278.319 177.577 278.304 177.59 278.291C177.603 278.277 177.618 278.267 177.635 278.26C177.653 278.253 177.671 278.249 177.689 278.249H181.078C181.115 278.249 181.151 278.264 181.177 278.291C181.204 278.317 181.219 278.353 181.219 278.39V279.104H183.336V278.39C183.336 278.372 183.339 278.353 183.346 278.336C183.353 278.319 183.364 278.304 183.377 278.291C183.39 278.277 183.405 278.267 183.422 278.26C183.44 278.253 183.458 278.249 183.476 278.249H186.865C186.883 278.249 186.902 278.253 186.919 278.26C186.936 278.267 186.951 278.277 186.965 278.29C186.978 278.303 186.988 278.319 186.995 278.336C187.002 278.353 187.006 278.371 187.006 278.39V279.104H189.123V278.39C189.123 278.372 189.126 278.353 189.133 278.336C189.14 278.319 189.151 278.304 189.164 278.291C189.177 278.277 189.192 278.267 189.209 278.26C189.227 278.253 189.245 278.249 189.263 278.249H192.652C192.67 278.249 192.689 278.253 192.706 278.26C192.723 278.267 192.738 278.277 192.752 278.29C192.765 278.303 192.775 278.319 192.782 278.336C192.789 278.353 192.793 278.371 192.793 278.39V279.104H194.912V278.39C194.912 278.372 194.916 278.353 194.923 278.336C194.93 278.319 194.94 278.304 194.953 278.291C194.966 278.277 194.982 278.267 194.999 278.26C195.016 278.253 195.034 278.249 195.053 278.249H198.441C198.478 278.25 198.514 278.265 198.54 278.291C198.566 278.318 198.58 278.353 198.58 278.39V279.104H200.699V278.39C200.699 278.372 200.703 278.353 200.71 278.336C200.717 278.319 200.727 278.304 200.74 278.291C200.753 278.277 200.769 278.267 200.786 278.26C200.803 278.253 200.821 278.249 200.84 278.249H204.228C204.247 278.249 204.265 278.253 204.282 278.26C204.299 278.267 204.315 278.277 204.328 278.29C204.341 278.303 204.352 278.319 204.359 278.336C204.366 278.353 204.37 278.371 204.37 278.39V279.104H206.486V278.39C206.486 278.372 206.49 278.353 206.497 278.336C206.504 278.319 206.514 278.304 206.527 278.291C206.54 278.277 206.556 278.267 206.573 278.26C206.59 278.253 206.608 278.249 206.627 278.249H210.015C210.034 278.249 210.052 278.253 210.069 278.26C210.086 278.267 210.102 278.277 210.115 278.29C210.128 278.303 210.139 278.319 210.146 278.336C210.153 278.353 210.157 278.371 210.157 278.39V279.104H220.038C220.936 279.104 221.798 279.461 222.433 280.096C223.069 280.731 223.426 281.592 223.426 282.49L223.426 282.492Z" fill="#3F3D56"/>
</g>
<g filter="url(#filter38_i)">
<path d="M214.355 218.004H111.166C110.793 218.004 110.424 218.078 110.079 218.22C109.735 218.363 109.422 218.572 109.158 218.836C108.894 219.1 108.685 219.413 108.542 219.757C108.4 220.102 108.326 220.471 108.326 220.844V278.339C108.326 279.092 108.625 279.815 109.158 280.347C109.691 280.88 110.413 281.179 111.166 281.179H214.355C215.108 281.179 215.83 280.88 216.363 280.347C216.896 279.815 217.195 279.092 217.195 278.339V220.844C217.195 220.091 216.896 219.369 216.363 218.836C215.83 218.303 215.108 218.004 214.355 218.004Z" fill="#3F3D56"/>
</g>
<path d="M162.843 244.383C166.326 244.383 169.15 241.559 169.15 238.076C169.15 234.593 166.326 231.77 162.843 231.77C159.36 231.77 156.536 234.593 156.536 238.076C156.536 241.559 159.36 244.383 162.843 244.383Z" fill="#6C63FF"/>
<path d="M201.885 196.413L233.723 164.323H248.754V163.819H233.512L233.438 163.894L201.526 196.058L201.885 196.413Z" fill="#3F3D56"/>
<path d="M304 151.149H267.112V154.436H304V151.149Z" fill="#6C63FF"/>
<path d="M262.617 156.514H254.808V148.705H262.617V156.514ZM255.312 156.009H262.112V149.209H255.312L255.312 156.009Z" fill="#3F3D56"/>
<path d="M304 162.106H267.112V165.393H304V162.106Z" fill="#6C63FF"/>
<path d="M262.617 167.47H254.808V159.661H262.617V167.47ZM255.312 166.966H262.112V160.166H255.312L255.312 166.966Z" fill="#3F3D56"/>
<path d="M304 173.062H267.112V176.349H304V173.062Z" fill="#6C63FF"/>
<path d="M262.617 178.426H254.808V170.617H262.617V178.426ZM255.312 177.922H262.112V171.122H255.312L255.312 177.922Z" fill="#3F3D56"/>
<g filter="url(#filter39_i)">
<path d="M13.1145 443.553C15.9762 444.559 19.0488 444.811 22.0361 444.285C25.0235 443.759 27.825 442.472 30.1708 440.549C36.1448 435.534 38.0179 427.274 39.5419 419.625C41.0445 412.083 42.5471 404.542 44.0497 397L34.6122 403.498C27.8253 408.171 20.8855 412.994 16.1863 419.763C11.4871 426.532 9.43586 435.772 13.2115 443.097" fill="#0F693E"/>
</g>
<path d="M13.9205 470.945C12.9653 463.987 11.9831 456.94 12.6532 449.908C13.2482 443.662 15.1536 437.562 19.0327 432.561C21.0918 429.911 23.5972 427.64 26.4365 425.852C27.1768 425.384 27.8583 426.558 27.1211 427.023C22.2084 430.128 18.4086 434.712 16.2696 440.116C13.9071 446.125 13.5277 452.676 13.9348 459.059C14.181 462.919 14.7028 466.754 15.2286 470.584C15.2701 470.757 15.2442 470.94 15.1563 471.095C15.0683 471.25 14.9249 471.365 14.7549 471.418C14.5815 471.465 14.3966 471.442 14.2404 471.353C14.0842 471.264 13.9693 471.118 13.9205 470.945Z" fill="#74B028"/>
<g filter="url(#filter40_i)">
<path d="M23.1211 458.632C24.3484 460.498 26.0355 462.016 28.0197 463.04C30.004 464.064 32.2185 464.56 34.45 464.48C40.185 464.207 44.9661 460.205 49.2699 456.405L62 445.165L53.5748 444.762C47.5159 444.472 41.3007 444.201 35.5299 446.07C29.759 447.938 24.4368 452.435 23.3815 458.408" fill="#0F693E"/>
</g>
<path d="M11.2211 474.944C15.8187 466.809 21.1514 457.768 30.6801 454.878C33.3295 454.078 36.1076 453.791 38.8648 454.033C39.7338 454.108 39.5168 455.448 38.6494 455.373C34.0277 454.989 29.415 456.21 25.5878 458.828C21.905 461.335 19.0374 464.82 16.6104 468.516C15.1238 470.78 13.7922 473.14 12.4603 475.497C12.0346 476.25 10.7905 475.706 11.2211 474.944L11.2211 474.944Z" fill="#74B028"/>
<g filter="url(#filter41_i)">
<path d="M3.85483 483.507C4.00973 481.712 4.65417 479.994 5.71797 478.54C6.78177 477.086 8.22414 475.952 9.88799 475.261V470.558H17.776V475.409C19.358 476.134 20.7194 477.266 21.7215 478.688C22.7237 480.111 23.3307 481.774 23.4806 483.507L25.3354 505.068H2L3.85483 483.507Z" fill="#691419"/>
</g>
<path d="M234.29 435.361L161.256 384.185L87.6325 435.105L160.28 465.653L234.29 435.361Z" fill="#E2F6FE"/>
<g filter="url(#filter42_i)">
<path d="M87.9144 435.057L87.967 435.056L118.118 447.877L159.37 465.418C159.531 465.486 159.704 465.521 159.879 465.522C160.053 465.522 160.227 465.488 160.388 465.422L202.894 447.712L233.746 434.857L233.793 434.836L233.846 434.836C234.333 434.836 234.8 435.029 235.145 435.373C235.49 435.716 235.685 436.183 235.686 436.67L235.807 516.46C235.807 516.947 235.614 517.415 235.27 517.76C234.926 518.105 234.459 518.299 233.972 518.3L88.0406 518.521C87.5535 518.521 87.0862 518.328 86.7413 517.984C86.3963 517.64 86.2019 517.174 86.2006 516.687L86.0799 436.897C86.0797 436.409 86.2728 435.942 86.6167 435.597C86.9606 435.252 87.4273 435.058 87.9144 435.057Z" fill="#E2F6FE"/>
</g>
<path d="M87.7836 435.582C87.8372 435.582 87.8895 435.566 87.9334 435.535L160.444 384.873C160.665 384.72 160.928 384.637 161.196 384.637C161.465 384.637 161.727 384.72 161.948 384.873L234.089 435.313C234.146 435.353 234.217 435.368 234.285 435.356C234.354 435.344 234.414 435.305 234.454 435.248C234.494 435.191 234.51 435.121 234.498 435.052C234.486 434.984 234.447 434.923 234.39 434.883L162.249 384.443C161.94 384.228 161.573 384.113 161.196 384.113C160.82 384.113 160.453 384.228 160.144 384.443L87.6327 435.104C87.5869 435.136 87.5526 435.182 87.5346 435.235C87.5166 435.288 87.516 435.345 87.5328 435.399C87.5497 435.452 87.5831 435.498 87.6282 435.531C87.6733 435.564 87.7278 435.582 87.7837 435.582L87.7836 435.582Z" fill="#3F3D56"/>
<g filter="url(#filter43_i)">
<path d="M229.974 437.159L161.128 386.296L91.9195 440.994L157.726 479.871L193.409 471.681L229.974 437.159Z" fill="#4C87BE"/>
</g>
<g filter="url(#filter44_i)">
<path d="M190.445 503.895L224.419 503.844C224.84 503.844 225.243 503.676 225.54 503.378C225.837 503.081 226.004 502.677 226.004 502.257C226.004 501.836 225.837 501.433 225.54 501.135C225.243 500.837 224.839 500.67 224.419 500.67L190.44 500.721C190.02 500.721 189.616 500.889 189.319 501.187C189.022 501.484 188.855 501.888 188.855 502.308C188.855 502.729 189.022 503.132 189.319 503.43C189.617 503.728 190.02 503.895 190.44 503.895L190.445 503.895Z" fill="#234C5E"/>
</g>
<g filter="url(#filter45_i)">
<path d="M212.219 497.039L224.408 497.02C224.828 497.02 225.232 496.852 225.529 496.555C225.826 496.257 225.993 495.854 225.993 495.433C225.993 495.012 225.826 494.609 225.529 494.311C225.231 494.014 224.828 493.846 224.407 493.846L212.214 493.864C211.793 493.865 211.39 494.032 211.093 494.33C210.795 494.627 210.628 495.031 210.628 495.452C210.628 495.872 210.795 496.276 211.093 496.573C211.39 496.871 211.793 497.038 212.214 497.039L212.219 497.039Z" fill="#234C5E"/>
</g>
<path d="M160.281 465.653C160.539 465.652 160.795 465.602 161.034 465.504L203.419 447.842L203.336 392.757C203.335 392.27 203.14 391.803 202.795 391.459C202.45 391.115 201.983 390.922 201.496 390.922L120.131 391.045C119.644 391.047 119.177 391.241 118.834 391.586C118.49 391.931 118.297 392.398 118.297 392.885L118.38 448.009L118.46 448.043L159.505 465.498C159.751 465.601 160.014 465.653 160.281 465.653Z" fill="#E2F6FE"/>
<path d="M159.451 465.618L118.247 448.095L118.163 392.885C118.163 392.363 118.37 391.862 118.738 391.493C119.107 391.123 119.607 390.915 120.129 390.914L201.493 390.79C202.015 390.79 202.516 390.997 202.886 391.366C203.255 391.734 203.463 392.234 203.465 392.756L203.548 447.929L161.081 465.625C160.559 465.838 159.972 465.836 159.451 465.618L159.451 465.618ZM202.94 392.757C202.939 392.374 202.786 392.007 202.515 391.737C202.244 391.467 201.877 391.315 201.494 391.315L120.129 391.438C119.747 391.439 119.38 391.592 119.11 391.863C118.84 392.134 118.688 392.501 118.688 392.884L118.771 447.748L159.655 465.134C160.047 465.298 160.488 465.3 160.881 465.14L203.023 447.579L202.94 392.757Z" fill="#3F3D56"/>
<path d="M86.4735 436.897L86.5942 516.687C86.5954 517.174 86.7899 517.64 87.1349 517.984C87.4798 518.328 87.9471 518.521 88.4342 518.521L234.366 518.3C234.853 518.299 235.32 518.105 235.664 517.76C236.007 517.415 236.2 516.947 236.2 516.46L236.08 436.67C236.078 436.183 235.884 435.716 235.539 435.373C235.194 435.029 234.727 434.836 234.24 434.836L234.187 434.836L234.14 434.857L203.288 447.712L160.782 465.422C160.62 465.488 160.447 465.522 160.272 465.522C160.097 465.521 159.925 465.486 159.763 465.418L118.511 447.877L88.3605 435.056L88.308 435.057C87.8209 435.058 87.3542 435.252 87.0102 435.597C86.6663 435.942 86.4733 436.409 86.4735 436.897ZM86.9984 436.896C86.9987 436.557 87.1296 436.231 87.3638 435.987C87.5981 435.742 87.9177 435.597 88.2562 435.582L118.512 448.447L159.557 465.902C160.013 466.092 160.527 466.094 160.985 465.907L203.289 448.279L234.29 435.361C234.629 435.374 234.95 435.517 235.186 435.762C235.422 436.006 235.554 436.332 235.555 436.671L235.675 516.461C235.676 516.809 235.538 517.143 235.292 517.389C235.046 517.636 234.713 517.775 234.365 517.775L88.4334 517.996C88.0854 517.996 87.7515 517.859 87.505 517.613C87.2586 517.367 87.1198 517.034 87.1191 516.686L86.9984 436.896Z" fill="#3F3D56"/>
<g filter="url(#filter46_i)">
<path d="M127.285 411.625L156.156 411.581C156.713 411.58 157.247 411.358 157.64 410.964C158.033 410.57 158.254 410.035 158.253 409.478C158.252 408.922 158.03 408.388 157.635 407.995C157.241 407.601 156.707 407.381 156.15 407.382L127.278 407.426C126.722 407.426 126.188 407.648 125.795 408.043C125.401 408.437 125.181 408.972 125.182 409.528C125.183 410.085 125.405 410.619 125.799 411.012C126.194 411.405 126.728 411.626 127.285 411.625Z" fill="#234C5E"/>
</g>
<g filter="url(#filter47_i)">
<path d="M127.289 402.702L141.199 402.681C141.756 402.68 142.29 402.458 142.683 402.063C143.076 401.669 143.297 401.135 143.296 400.578C143.295 400.021 143.073 399.487 142.679 399.094C142.284 398.701 141.75 398.48 141.193 398.481L127.282 398.502C126.725 398.503 126.192 398.725 125.799 399.119C125.405 399.514 125.185 400.048 125.186 400.605C125.187 401.162 125.409 401.696 125.803 402.089C126.197 402.482 126.732 402.703 127.289 402.702Z" fill="#234C5E"/>
</g>
<g filter="url(#filter48_i)">
<path d="M139.283 432.604L183.377 432.537C183.934 432.536 184.468 432.314 184.861 431.92C185.254 431.526 185.475 430.991 185.474 430.434C185.473 429.878 185.251 429.344 184.857 428.951C184.462 428.557 183.928 428.337 183.371 428.338L139.276 428.405C138.72 428.405 138.186 428.627 137.793 429.022C137.4 429.416 137.179 429.951 137.18 430.507C137.181 431.064 137.403 431.598 137.797 431.991C138.192 432.384 138.726 432.605 139.283 432.604Z" fill="#211A1A"/>
</g>
<g filter="url(#filter49_i)">
<path d="M139.297 442.316L183.392 442.249C183.949 442.248 184.483 442.026 184.876 441.632C185.269 441.238 185.489 440.703 185.488 440.146C185.488 439.589 185.266 439.056 184.871 438.663C184.477 438.269 183.942 438.049 183.386 438.05L139.291 438.116C138.734 438.117 138.201 438.339 137.807 438.734C137.414 439.128 137.194 439.662 137.195 440.219C137.195 440.776 137.417 441.31 137.812 441.703C138.206 442.096 138.741 442.317 139.297 442.316Z" fill="#211A1A"/>
</g>
<path opacity="0.15" d="M190.935 406.491C190.968 406.487 194.3 406.067 195.718 403.624C196.674 401.979 196.574 399.765 195.422 397.045L196.311 396.669C197.589 399.687 197.669 402.192 196.549 404.115C194.882 406.975 191.202 407.431 191.046 407.449L190.935 406.491Z" fill="black"/>
<g filter="url(#filter50_i)">
<path d="M483.709 185.204C484.732 189.096 487.14 192.481 490.481 194.725C493.822 196.969 497.866 197.918 501.856 197.393C505.846 196.868 509.508 194.907 512.155 191.875C514.802 188.844 516.252 184.951 516.235 180.927C516.217 176.902 514.732 173.023 512.058 170.015C509.385 167.007 505.706 165.077 501.711 164.588C497.717 164.098 493.681 165.082 490.36 167.356C487.039 169.629 484.662 173.035 483.673 176.936L427.397 178.092L427.161 169.156L424.059 168.894L423.942 164.426L427.035 164.345L426.917 159.877L422.105 160.004L422.178 162.753L417.023 162.889L416.95 160.14L409.389 160.34L409.498 164.464L412.248 164.391L412.365 168.859L408.929 168.949L409.146 177.198L400.898 177.415L401.161 187.382L483.709 185.204ZM507.224 173.063C508.794 174.552 509.886 176.473 510.364 178.583C510.842 180.693 510.684 182.898 509.909 184.918C509.134 186.938 507.777 188.683 506.011 189.932C504.244 191.181 502.147 191.878 499.984 191.935C497.821 191.992 495.69 191.406 493.86 190.252C492.03 189.098 490.583 187.427 489.702 185.451C488.822 183.474 488.547 181.281 488.913 179.149C489.279 177.016 490.27 175.04 491.759 173.471C493.755 171.366 496.506 170.14 499.407 170.064C502.307 169.987 505.119 171.066 507.224 173.063L507.224 173.063Z" fill="#0A8B9A"/>
</g>
</g>
<defs>
<filter id="filter0_ii" x="539" y="-4" width="200" height="208" filterUnits="userSpaceOnUse" color-interpolation-filters="sRGB">
<feFlood flood-opacity="0" result="BackgroundImageFix"/>
<feBlend mode="normal" in="SourceGraphic" in2="BackgroundImageFix" result="shape"/>
<feColorMatrix in="SourceAlpha" type="matrix" values="0 0 0 0 0 0 0 0 0 0 0 0 0 0 0 0 0 0 127 0" result="hardAlpha"/>
<feOffset dy="-4"/>
<feGaussianBlur stdDeviation="2"/>
<feComposite in2="hardAlpha" operator="arithmetic" k2="-1" k3="1"/>
<feColorMatrix type="matrix" values="0 0 0 0 0 0 0 0 0 0 0 0 0 0 0 0 0 0 0.4 0"/>
<feBlend mode="normal" in2="shape" result="effect1_innerShadow"/>
<feColorMatrix in="SourceAlpha" type="matrix" values="0 0 0 0 0 0 0 0 0 0 0 0 0 0 0 0 0 0 127 0" result="hardAlpha"/>
<feOffset dy="4"/>
<feGaussianBlur stdDeviation="2"/>
<feComposite in2="hardAlpha" operator="arithmetic" k2="-1" k3="1"/>
<feColorMatrix type="matrix" values="0 0 0 0 0 0 0 0 0 0 0 0 0 0 0 0 0 0 0.4 0"/>
<feBlend mode="normal" in2="effect1_innerShadow" result="effect2_innerShadow"/>
</filter>
<filter id="filter1_ii" x="568.578" y="25.5776" width="140.845" height="148.845" filterUnits="userSpaceOnUse" color-interpolation-filters="sRGB">
<feFlood flood-opacity="0" result="BackgroundImageFix"/>
<feBlend mode="normal" in="SourceGraphic" in2="BackgroundImageFix" result="shape"/>
<feColorMatrix in="SourceAlpha" type="matrix" values="0 0 0 0 0 0 0 0 0 0 0 0 0 0 0 0 0 0 127 0" result="hardAlpha"/>
<feOffset dy="-4"/>
<feGaussianBlur stdDeviation="2"/>
<feComposite in2="hardAlpha" operator="arithmetic" k2="-1" k3="1"/>
<feColorMatrix type="matrix" values="0 0 0 0 0 0 0 0 0 0 0 0 0 0 0 0 0 0 0.4 0"/>
<feBlend mode="normal" in2="shape" result="effect1_innerShadow"/>
<feColorMatrix in="SourceAlpha" type="matrix" values="0 0 0 0 0 0 0 0 0 0 0 0 0 0 0 0 0 0 127 0" result="hardAlpha"/>
<feOffset dy="4"/>
<feGaussianBlur stdDeviation="2"/>
<feComposite in2="hardAlpha" operator="arithmetic" k2="-1" k3="1"/>
<feColorMatrix type="matrix" values="0 0 0 0 0 0 0 0 0 0 0 0 0 0 0 0 0 0 0.4 0"/>
<feBlend mode="normal" in2="effect1_innerShadow" result="effect2_innerShadow"/>
</filter>
<filter id="filter2_ii" x="592.521" y="49.5205" width="92.9578" height="100.958" filterUnits="userSpaceOnUse" color-interpolation-filters="sRGB">
<feFlood flood-opacity="0" result="BackgroundImageFix"/>
<feBlend mode="normal" in="SourceGraphic" in2="BackgroundImageFix" result="shape"/>
<feColorMatrix in="SourceAlpha" type="matrix" values="0 0 0 0 0 0 0 0 0 0 0 0 0 0 0 0 0 0 127 0" result="hardAlpha"/>
<feOffset dy="-4"/>
<feGaussianBlur stdDeviation="2"/>
<feComposite in2="hardAlpha" operator="arithmetic" k2="-1" k3="1"/>
<feColorMatrix type="matrix" values="0 0 0 0 1 0 0 0 0 1 0 0 0 0 1 0 0 0 0.4 0"/>
<feBlend mode="normal" in2="shape" result="effect1_innerShadow"/>
<feColorMatrix in="SourceAlpha" type="matrix" values="0 0 0 0 0 0 0 0 0 0 0 0 0 0 0 0 0 0 127 0" result="hardAlpha"/>
<feOffset dy="4"/>
<feGaussianBlur stdDeviation="2"/>
<feComposite in2="hardAlpha" operator="arithmetic" k2="-1" k3="1"/>
<feColorMatrix type="matrix" values="0 0 0 0 1 0 0 0 0 1 0 0 0 0 1 0 0 0 0.4 0"/>
<feBlend mode="normal" in2="effect1_innerShadow" result="effect2_innerShadow"/>
</filter>
<filter id="filter3_i" x="609" y="53" width="60" height="82.6571" filterUnits="userSpaceOnUse" color-interpolation-filters="sRGB">
<feFlood flood-opacity="0" result="BackgroundImageFix"/>
<feBlend mode="normal" in="SourceGraphic" in2="BackgroundImageFix" result="shape"/>
<feColorMatrix in="SourceAlpha" type="matrix" values="0 0 0 0 0 0 0 0 0 0 0 0 0 0 0 0 0 0 127 0" result="hardAlpha"/>
<feOffset dy="-5"/>
<feGaussianBlur stdDeviation="2"/>
<feComposite in2="hardAlpha" operator="arithmetic" k2="-1" k3="1"/>
<feColorMatrix type="matrix" values="0 0 0 0 0 0 0 0 0 0 0 0 0 0 0 0 0 0 0.3 0"/>
<feBlend mode="normal" in2="shape" result="effect1_innerShadow"/>
</filter>
<filter id="filter4_i" x="819.744" y="369.174" width="3.09988" height="65.4984" filterUnits="userSpaceOnUse" color-interpolation-filters="sRGB">
<feFlood flood-opacity="0" result="BackgroundImageFix"/>
<feBlend mode="normal" in="SourceGraphic" in2="BackgroundImageFix" result="shape"/>
<feColorMatrix in="SourceAlpha" type="matrix" values="0 0 0 0 0 0 0 0 0 0 0 0 0 0 0 0 0 0 127 0" result="hardAlpha"/>
<feOffset dx="0.2" dy="0.2"/>
<feGaussianBlur stdDeviation="0.125"/>
<feComposite in2="hardAlpha" operator="arithmetic" k2="-1" k3="1"/>
<feColorMatrix type="matrix" values="0 0 0 0 0 0 0 0 0 0 0 0 0 0 0 0 0 0 0.6 0"/>
<feBlend mode="normal" in2="shape" result="effect1_innerShadow"/>
</filter>
<filter id="filter5_i" x="801.51" y="429.867" width="40.3693" height="78.9802" filterUnits="userSpaceOnUse" color-interpolation-filters="sRGB">
<feFlood flood-opacity="0" result="BackgroundImageFix"/>
<feBlend mode="normal" in="SourceGraphic" in2="BackgroundImageFix" result="shape"/>
<feColorMatrix in="SourceAlpha" type="matrix" values="0 0 0 0 0 0 0 0 0 0 0 0 0 0 0 0 0 0 127 0" result="hardAlpha"/>
<feOffset dx="2" dy="2"/>
<feGaussianBlur stdDeviation="0.5"/>
<feComposite in2="hardAlpha" operator="arithmetic" k2="-1" k3="1"/>
<feColorMatrix type="matrix" values="0 0 0 0 1 0 0 0 0 1 0 0 0 0 1 0 0 0 0.4 0"/>
<feBlend mode="normal" in2="shape" result="effect1_innerShadow"/>
</filter>
<filter id="filter6_i" x="801.696" y="437.213" width="39.9901" height="5.15071" filterUnits="userSpaceOnUse" color-interpolation-filters="sRGB">
<feFlood flood-opacity="0" result="BackgroundImageFix"/>
<feBlend mode="normal" in="SourceGraphic" in2="BackgroundImageFix" result="shape"/>
<feColorMatrix in="SourceAlpha" type="matrix" values="0 0 0 0 0 0 0 0 0 0 0 0 0 0 0 0 0 0 127 0" result="hardAlpha"/>
<feOffset dx="1" dy="1"/>
<feGaussianBlur stdDeviation="0.5"/>
<feComposite in2="hardAlpha" operator="arithmetic" k2="-1" k3="1"/>
<feColorMatrix type="matrix" values="0 0 0 0 1 0 0 0 0 1 0 0 0 0 1 0 0 0 0.4 0"/>
<feBlend mode="normal" in2="shape" result="effect1_innerShadow"/>
</filter>
<filter id="filter7_i" x="802.059" y="443.095" width="39.2651" height="5.15582" filterUnits="userSpaceOnUse" color-interpolation-filters="sRGB">
<feFlood flood-opacity="0" result="BackgroundImageFix"/>
<feBlend mode="normal" in="SourceGraphic" in2="BackgroundImageFix" result="shape"/>
<feColorMatrix in="SourceAlpha" type="matrix" values="0 0 0 0 0 0 0 0 0 0 0 0 0 0 0 0 0 0 127 0" result="hardAlpha"/>
<feOffset dx="1" dy="1"/>
<feGaussianBlur stdDeviation="0.5"/>
<feComposite in2="hardAlpha" operator="arithmetic" k2="-1" k3="1"/>
<feColorMatrix type="matrix" values="0 0 0 0 1 0 0 0 0 1 0 0 0 0 1 0 0 0 0.4 0"/>
<feBlend mode="normal" in2="shape" result="effect1_innerShadow"/>
</filter>
<filter id="filter8_i" x="802.426" y="448.981" width="38.53" height="5.15071" filterUnits="userSpaceOnUse" color-interpolation-filters="sRGB">
<feFlood flood-opacity="0" result="BackgroundImageFix"/>
<feBlend mode="normal" in="SourceGraphic" in2="BackgroundImageFix" result="shape"/>
<feColorMatrix in="SourceAlpha" type="matrix" values="0 0 0 0 0 0 0 0 0 0 0 0 0 0 0 0 0 0 127 0" result="hardAlpha"/>
<feOffset dx="1" dy="1"/>
<feGaussianBlur stdDeviation="0.5"/>
<feComposite in2="hardAlpha" operator="arithmetic" k2="-1" k3="1"/>
<feColorMatrix type="matrix" values="0 0 0 0 1 0 0 0 0 1 0 0 0 0 1 0 0 0 0.4 0"/>
<feBlend mode="normal" in2="shape" result="effect1_innerShadow"/>
</filter>
<filter id="filter9_i" x="760" y="380.732" width="62.1936" height="45.2487" filterUnits="userSpaceOnUse" color-interpolation-filters="sRGB">
<feFlood flood-opacity="0" result="BackgroundImageFix"/>
<feBlend mode="normal" in="SourceGraphic" in2="BackgroundImageFix" result="shape"/>
<feColorMatrix in="SourceAlpha" type="matrix" values="0 0 0 0 0 0 0 0 0 0 0 0 0 0 0 0 0 0 127 0" result="hardAlpha"/>
<feOffset dx="2" dy="2"/>
<feGaussianBlur stdDeviation="0.5"/>
<feComposite in2="hardAlpha" operator="arithmetic" k2="-1" k3="1"/>
<feColorMatrix type="matrix" values="0 0 0 0 1 0 0 0 0 1 0 0 0 0 1 0 0 0 0.4 0"/>
<feBlend mode="normal" in2="shape" result="effect1_innerShadow"/>
</filter>
<filter id="filter10_i" x="759.54" y="379.858" width="62.2972" height="46.2236" filterUnits="userSpaceOnUse" color-interpolation-filters="sRGB">
<feFlood flood-opacity="0" result="BackgroundImageFix"/>
<feBlend mode="normal" in="SourceGraphic" in2="BackgroundImageFix" result="shape"/>
<feColorMatrix in="SourceAlpha" type="matrix" values="0 0 0 0 0 0 0 0 0 0 0 0 0 0 0 0 0 0 127 0" result="hardAlpha"/>
<feOffset dx="0.2" dy="0.2"/>
<feGaussianBlur stdDeviation="0.125"/>
<feComposite in2="hardAlpha" operator="arithmetic" k2="-1" k3="1"/>
<feColorMatrix type="matrix" values="0 0 0 0 0 0 0 0 0 0 0 0 0 0 0 0 0 0 0.6 0"/>
<feBlend mode="normal" in2="shape" result="effect1_innerShadow"/>
</filter>
<filter id="filter11_i" x="787.901" y="362.026" width="34.2925" height="25.0823" filterUnits="userSpaceOnUse" color-interpolation-filters="sRGB">
<feFlood flood-opacity="0" result="BackgroundImageFix"/>
<feBlend mode="normal" in="SourceGraphic" in2="BackgroundImageFix" result="shape"/>
<feColorMatrix in="SourceAlpha" type="matrix" values="0 0 0 0 0 0 0 0 0 0 0 0 0 0 0 0 0 0 127 0" result="hardAlpha"/>
<feOffset dx="2" dy="2"/>
<feGaussianBlur stdDeviation="0.5"/>
<feComposite in2="hardAlpha" operator="arithmetic" k2="-1" k3="1"/>
<feColorMatrix type="matrix" values="0 0 0 0 1 0 0 0 0 1 0 0 0 0 1 0 0 0 0.4 0"/>
<feBlend mode="normal" in2="shape" result="effect1_innerShadow"/>
</filter>
<filter id="filter12_i" x="787.416" y="361.126" width="34.4211" height="26.0527" filterUnits="userSpaceOnUse" color-interpolation-filters="sRGB">
<feFlood flood-opacity="0" result="BackgroundImageFix"/>
<feBlend mode="normal" in="SourceGraphic" in2="BackgroundImageFix" result="shape"/>
<feColorMatrix in="SourceAlpha" type="matrix" values="0 0 0 0 0 0 0 0 0 0 0 0 0 0 0 0 0 0 127 0" result="hardAlpha"/>
<feOffset dx="0.2" dy="0.2"/>
<feGaussianBlur stdDeviation="0.125"/>
<feComposite in2="hardAlpha" operator="arithmetic" k2="-1" k3="1"/>
<feColorMatrix type="matrix" values="0 0 0 0 0 0 0 0 0 0 0 0 0 0 0 0 0 0 0.6 0"/>
<feBlend mode="normal" in2="shape" result="effect1_innerShadow"/>
</filter>
<filter id="filter13_i" x="821.761" y="370.296" width="39.2396" height="43.0278" filterUnits="userSpaceOnUse" color-interpolation-filters="sRGB">
<feFlood flood-opacity="0" result="BackgroundImageFix"/>
<feBlend mode="normal" in="SourceGraphic" in2="BackgroundImageFix" result="shape"/>
<feColorMatrix in="SourceAlpha" type="matrix" values="0 0 0 0 0 0 0 0 0 0 0 0 0 0 0 0 0 0 127 0" result="hardAlpha"/>
<feOffset dx="2" dy="2"/>
<feGaussianBlur stdDeviation="0.5"/>
<feComposite in2="hardAlpha" operator="arithmetic" k2="-1" k3="1"/>
<feColorMatrix type="matrix" values="0 0 0 0 1 0 0 0 0 1 0 0 0 0 1 0 0 0 0.4 0"/>
<feBlend mode="normal" in2="shape" result="effect1_innerShadow"/>
</filter>
<filter id="filter14_i" x="821.143" y="369.54" width="39.7118" height="43.7901" filterUnits="userSpaceOnUse" color-interpolation-filters="sRGB">
<feFlood flood-opacity="0" result="BackgroundImageFix"/>
<feBlend mode="normal" in="SourceGraphic" in2="BackgroundImageFix" result="shape"/>
<feColorMatrix in="SourceAlpha" type="matrix" values="0 0 0 0 0 0 0 0 0 0 0 0 0 0 0 0 0 0 127 0" result="hardAlpha"/>
<feOffset dx="0.2" dy="0.2"/>
<feGaussianBlur stdDeviation="0.125"/>
<feComposite in2="hardAlpha" operator="arithmetic" k2="-1" k3="1"/>
<feColorMatrix type="matrix" values="0 0 0 0 0 0 0 0 0 0 0 0 0 0 0 0 0 0 0.6 0"/>
<feBlend mode="normal" in2="shape" result="effect1_innerShadow"/>
</filter>
<filter id="filter15_i" x="150.432" y="352.476" width="140.106" height="43.6259" filterUnits="userSpaceOnUse" color-interpolation-filters="sRGB">
<feFlood flood-opacity="0" result="BackgroundImageFix"/>
<feBlend mode="normal" in="SourceGraphic" in2="BackgroundImageFix" result="shape"/>
<feColorMatrix in="SourceAlpha" type="matrix" values="0 0 0 0 0 0 0 0 0 0 0 0 0 0 0 0 0 0 127 0" result="hardAlpha"/>
<feOffset dy="-4"/>
<feGaussianBlur stdDeviation="2"/>
<feComposite in2="hardAlpha" operator="arithmetic" k2="-1" k3="1"/>
<feColorMatrix type="matrix" values="0 0 0 0 1 0 0 0 0 1 0 0 0 0 1 0 0 0 0.3 0"/>
<feBlend mode="normal" in2="shape" result="effect1_innerShadow"/>
</filter>
<filter id="filter16_i" x="150.431" y="404.839" width="140.106" height="47.8716" filterUnits="userSpaceOnUse" color-interpolation-filters="sRGB">
<feFlood flood-opacity="0" result="BackgroundImageFix"/>
<feBlend mode="normal" in="SourceGraphic" in2="BackgroundImageFix" result="shape"/>
<feColorMatrix in="SourceAlpha" type="matrix" values="0 0 0 0 0 0 0 0 0 0 0 0 0 0 0 0 0 0 127 0" result="hardAlpha"/>
<feOffset dy="-4"/>
<feGaussianBlur stdDeviation="2"/>
<feComposite in2="hardAlpha" operator="arithmetic" k2="-1" k3="1"/>
<feColorMatrix type="matrix" values="0 0 0 0 1 0 0 0 0 1 0 0 0 0 1 0 0 0 0.3 0"/>
<feBlend mode="normal" in2="shape" result="effect1_innerShadow"/>
</filter>
<filter id="filter17_i" x="150.432" y="461.448" width="140.106" height="43.626" filterUnits="userSpaceOnUse" color-interpolation-filters="sRGB">
<feFlood flood-opacity="0" result="BackgroundImageFix"/>
<feBlend mode="normal" in="SourceGraphic" in2="BackgroundImageFix" result="shape"/>
<feColorMatrix in="SourceAlpha" type="matrix" values="0 0 0 0 0 0 0 0 0 0 0 0 0 0 0 0 0 0 127 0" result="hardAlpha"/>
<feOffset dy="-4"/>
<feGaussianBlur stdDeviation="2"/>
<feComposite in2="hardAlpha" operator="arithmetic" k2="-1" k3="1"/>
<feColorMatrix type="matrix" values="0 0 0 0 1 0 0 0 0 1 0 0 0 0 1 0 0 0 0.3 0"/>
<feBlend mode="normal" in2="shape" result="effect1_innerShadow"/>
</filter>
<filter id="filter18_i" x="428.59" y="255.861" width="63.6577" height="31.429" filterUnits="userSpaceOnUse" color-interpolation-filters="sRGB">
<feFlood flood-opacity="0" result="BackgroundImageFix"/>
<feBlend mode="normal" in="SourceGraphic" in2="BackgroundImageFix" result="shape"/>
<feColorMatrix in="SourceAlpha" type="matrix" values="0 0 0 0 0 0 0 0 0 0 0 0 0 0 0 0 0 0 127 0" result="hardAlpha"/>
<feOffset dx="-4" dy="-4"/>
<feGaussianBlur stdDeviation="2"/>
<feComposite in2="hardAlpha" operator="arithmetic" k2="-1" k3="1"/>
<feColorMatrix type="matrix" values="0 0 0 0 0 0 0 0 0 0 0 0 0 0 0 0 0 0 0.25 0"/>
<feBlend mode="normal" in2="shape" result="effect1_innerShadow"/>
</filter>
<filter id="filter19_i" x="353.006" y="229.109" width="223.012" height="33.8831" filterUnits="userSpaceOnUse" color-interpolation-filters="sRGB">
<feFlood flood-opacity="0" result="BackgroundImageFix"/>
<feBlend mode="normal" in="SourceGraphic" in2="BackgroundImageFix" result="shape"/>
<feColorMatrix in="SourceAlpha" type="matrix" values="0 0 0 0 0 0 0 0 0 0 0 0 0 0 0 0 0 0 127 0" result="hardAlpha"/>
<feOffset dx="4"/>
<feGaussianBlur stdDeviation="2"/>
<feComposite in2="hardAlpha" operator="arithmetic" k2="-1" k3="1"/>
<feColorMatrix type="matrix" values="0 0 0 0 0 0 0 0 0 0 0 0 0 0 0 0 0 0 0.25 0"/>
<feBlend mode="normal" in2="shape" result="effect1_innerShadow"/>
</filter>
<filter id="filter20_i" x="352.813" y="110" width="219.425" height="133.15" filterUnits="userSpaceOnUse" color-interpolation-filters="sRGB">
<feFlood flood-opacity="0" result="BackgroundImageFix"/>
<feBlend mode="normal" in="SourceGraphic" in2="BackgroundImageFix" result="shape"/>
<feColorMatrix in="SourceAlpha" type="matrix" values="0 0 0 0 0 0 0 0 0 0 0 0 0 0 0 0 0 0 127 0" result="hardAlpha"/>
<feOffset dy="-2"/>
<feGaussianBlur stdDeviation="0.5"/>
<feComposite in2="hardAlpha" operator="arithmetic" k2="-1" k3="1"/>
<feColorMatrix type="matrix" values="0 0 0 0 1 0 0 0 0 1 0 0 0 0 1 0 0 0 0.3 0"/>
<feBlend mode="normal" in2="shape" result="effect1_innerShadow"/>
</filter>
<filter id="filter21_ii" x="360.039" y="116.226" width="204.972" height="121.698" filterUnits="userSpaceOnUse" color-interpolation-filters="sRGB">
<feFlood flood-opacity="0" result="BackgroundImageFix"/>
<feBlend mode="normal" in="SourceGraphic" in2="BackgroundImageFix" result="shape"/>
<feColorMatrix in="SourceAlpha" type="matrix" values="0 0 0 0 0 0 0 0 0 0 0 0 0 0 0 0 0 0 127 0" result="hardAlpha"/>
<feOffset dx="-2" dy="5"/>
<feGaussianBlur stdDeviation="2"/>
<feComposite in2="hardAlpha" operator="arithmetic" k2="-1" k3="1"/>
<feColorMatrix type="matrix" values="0 0 0 0 0 0 0 0 0 0 0 0 0 0 0 0 0 0 0.3 0"/>
<feBlend mode="normal" in2="shape" result="effect1_innerShadow"/>
<feColorMatrix in="SourceAlpha" type="matrix" values="0 0 0 0 0 0 0 0 0 0 0 0 0 0 0 0 0 0 127 0" result="hardAlpha"/>
<feOffset dx="2" dy="-5"/>
<feGaussianBlur stdDeviation="2"/>
<feComposite in2="hardAlpha" operator="arithmetic" k2="-1" k3="1"/>
<feColorMatrix type="matrix" values="0 0 0 0 0 0 0 0 0 0 0 0 0 0 0 0 0 0 0.3 0"/>
<feBlend mode="normal" in2="effect1_innerShadow" result="effect2_innerShadow"/>
</filter>
<filter id="filter22_i" x="557.335" y="366.38" width="119.806" height="40.8186" filterUnits="userSpaceOnUse" color-interpolation-filters="sRGB">
<feFlood flood-opacity="0" result="BackgroundImageFix"/>
<feBlend mode="normal" in="SourceGraphic" in2="BackgroundImageFix" result="shape"/>
<feColorMatrix in="SourceAlpha" type="matrix" values="0 0 0 0 0 0 0 0 0 0 0 0 0 0 0 0 0 0 127 0" result="hardAlpha"/>
<feOffset dx="4" dy="4"/>
<feGaussianBlur stdDeviation="2"/>
<feComposite in2="hardAlpha" operator="arithmetic" k2="-1" k3="1"/>
<feColorMatrix type="matrix" values="0 0 0 0 0 0 0 0 0 0 0 0 0 0 0 0 0 0 0.25 0"/>
<feBlend mode="normal" in2="shape" result="effect1_innerShadow"/>
</filter>
<filter id="filter23_i" x="606.431" y="402.522" width="21.7275" height="106.324" filterUnits="userSpaceOnUse" color-interpolation-filters="sRGB">
<feFlood flood-opacity="0" result="BackgroundImageFix"/>
<feBlend mode="normal" in="SourceGraphic" in2="BackgroundImageFix" result="shape"/>
<feColorMatrix in="SourceAlpha" type="matrix" values="0 0 0 0 0 0 0 0 0 0 0 0 0 0 0 0 0 0 127 0" result="hardAlpha"/>
<feOffset dx="4" dy="4"/>
<feGaussianBlur stdDeviation="2"/>
<feComposite in2="hardAlpha" operator="arithmetic" k2="-1" k3="1"/>
<feColorMatrix type="matrix" values="0 0 0 0 0 0 0 0 0 0 0 0 0 0 0 0 0 0 0.25 0"/>
<feBlend mode="normal" in2="shape" result="effect1_innerShadow"/>
</filter>
<filter id="filter24_i" x="555.976" y="487.118" width="124.001" height="22.2021" filterUnits="userSpaceOnUse" color-interpolation-filters="sRGB">
<feFlood flood-opacity="0" result="BackgroundImageFix"/>
<feBlend mode="normal" in="SourceGraphic" in2="BackgroundImageFix" result="shape"/>
<feColorMatrix in="SourceAlpha" type="matrix" values="0 0 0 0 0 0 0 0 0 0 0 0 0 0 0 0 0 0 127 0" result="hardAlpha"/>
<feOffset dx="4" dy="4"/>
<feGaussianBlur stdDeviation="2"/>
<feComposite in2="hardAlpha" operator="arithmetic" k2="-1" k3="1"/>
<feColorMatrix type="matrix" values="0 0 0 0 0 0 0 0 0 0 0 0 0 0 0 0 0 0 0.25 0"/>
<feBlend mode="normal" in2="shape" result="effect1_innerShadow"/>
</filter>
<filter id="filter25_i" x="495.565" y="276.028" width="46.8955" height="24.1993" filterUnits="userSpaceOnUse" color-interpolation-filters="sRGB">
<feFlood flood-opacity="0" result="BackgroundImageFix"/>
<feBlend mode="normal" in="SourceGraphic" in2="BackgroundImageFix" result="shape"/>
<feColorMatrix in="SourceAlpha" type="matrix" values="0 0 0 0 0 0 0 0 0 0 0 0 0 0 0 0 0 0 127 0" result="hardAlpha"/>
<feOffset dy="5"/>
<feGaussianBlur stdDeviation="2"/>
<feComposite in2="hardAlpha" operator="arithmetic" k2="-1" k3="1"/>
<feColorMatrix type="matrix" values="0 0 0 0 0.770833 0 0 0 0 0.285851 0 0 0 0 0.285851 0 0 0 0.4 0"/>
<feBlend mode="normal" in2="shape" result="effect1_innerShadow"/>
</filter>
<filter id="filter26_i" x="519.75" y="228.836" width="98.6887" height="70.6061" filterUnits="userSpaceOnUse" color-interpolation-filters="sRGB">
<feFlood flood-opacity="0" result="BackgroundImageFix"/>
<feBlend mode="normal" in="SourceGraphic" in2="BackgroundImageFix" result="shape"/>
<feColorMatrix in="SourceAlpha" type="matrix" values="0 0 0 0 0 0 0 0 0 0 0 0 0 0 0 0 0 0 127 0" result="hardAlpha"/>
<feOffset dy="5"/>
<feGaussianBlur stdDeviation="2"/>
<feComposite in2="hardAlpha" operator="arithmetic" k2="-1" k3="1"/>
<feColorMatrix type="matrix" values="0 0 0 0 1 0 0 0 0 1 0 0 0 0 1 0 0 0 0.4 0"/>
<feBlend mode="normal" in2="shape" result="effect1_innerShadow"/>
</filter>
<filter id="filter27_i" x="508.697" y="441.226" width="19.4704" height="54.8867" filterUnits="userSpaceOnUse" color-interpolation-filters="sRGB">
<feFlood flood-opacity="0" result="BackgroundImageFix"/>
<feBlend mode="normal" in="SourceGraphic" in2="BackgroundImageFix" result="shape"/>
<feColorMatrix in="SourceAlpha" type="matrix" values="0 0 0 0 0 0 0 0 0 0 0 0 0 0 0 0 0 0 127 0" result="hardAlpha"/>
<feOffset dy="5"/>
<feGaussianBlur stdDeviation="2"/>
<feComposite in2="hardAlpha" operator="arithmetic" k2="-1" k3="1"/>
<feColorMatrix type="matrix" values="0 0 0 0 0.770833 0 0 0 0 0.285851 0 0 0 0 0.285851 0 0 0 0.4 0"/>
<feBlend mode="normal" in2="shape" result="effect1_innerShadow"/>
</filter>
<filter id="filter28_i" x="469.706" y="441.226" width="19.4705" height="54.8867" filterUnits="userSpaceOnUse" color-interpolation-filters="sRGB">
<feFlood flood-opacity="0" result="BackgroundImageFix"/>
<feBlend mode="normal" in="SourceGraphic" in2="BackgroundImageFix" result="shape"/>
<feColorMatrix in="SourceAlpha" type="matrix" values="0 0 0 0 0 0 0 0 0 0 0 0 0 0 0 0 0 0 127 0" result="hardAlpha"/>
<feOffset dy="5"/>
<feGaussianBlur stdDeviation="2"/>
<feComposite in2="hardAlpha" operator="arithmetic" k2="-1" k3="1"/>
<feColorMatrix type="matrix" values="0 0 0 0 0.770833 0 0 0 0 0.285851 0 0 0 0 0.285851 0 0 0 0.4 0"/>
<feBlend mode="normal" in2="shape" result="effect1_innerShadow"/>
</filter>
<filter id="filter29_i" x="584.412" y="149.28" width="45.8766" height="49.8766" filterUnits="userSpaceOnUse" color-interpolation-filters="sRGB">
<feFlood flood-opacity="0" result="BackgroundImageFix"/>
<feBlend mode="normal" in="SourceGraphic" in2="BackgroundImageFix" result="shape"/>
<feColorMatrix in="SourceAlpha" type="matrix" values="0 0 0 0 0 0 0 0 0 0 0 0 0 0 0 0 0 0 127 0" result="hardAlpha"/>
<feOffset dy="-5"/>
<feGaussianBlur stdDeviation="2"/>
<feComposite in2="hardAlpha" operator="arithmetic" k2="-1" k3="1"/>
<feColorMatrix type="matrix" values="0 0 0 0 0.770833 0 0 0 0 0.285851 0 0 0 0 0.285851 0 0 0 0.4 0"/>
<feBlend mode="normal" in2="shape" result="effect1_innerShadow"/>
</filter>
<filter id="filter30_i" x="466.683" y="316.326" width="133.807" height="155.474" filterUnits="userSpaceOnUse" color-interpolation-filters="sRGB">
<feFlood flood-opacity="0" result="BackgroundImageFix"/>
<feBlend mode="normal" in="SourceGraphic" in2="BackgroundImageFix" result="shape"/>
<feColorMatrix in="SourceAlpha" type="matrix" values="0 0 0 0 0 0 0 0 0 0 0 0 0 0 0 0 0 0 127 0" result="hardAlpha"/>
<feOffset dy="4"/>
<feGaussianBlur stdDeviation="2"/>
<feComposite in2="hardAlpha" operator="arithmetic" k2="-1" k3="1"/>
<feColorMatrix type="matrix" values="0 0 0 0 1 0 0 0 0 1 0 0 0 0 1 0 0 0 0.4 0"/>
<feBlend mode="normal" in2="shape" result="effect1_innerShadow"/>
</filter>
<filter id="filter31_i" x="572.405" y="203.059" width="78.5948" height="140.263" filterUnits="userSpaceOnUse" color-interpolation-filters="sRGB">
<feFlood flood-opacity="0" result="BackgroundImageFix"/>
<feBlend mode="normal" in="SourceGraphic" in2="BackgroundImageFix" result="shape"/>
<feColorMatrix in="SourceAlpha" type="matrix" values="0 0 0 0 0 0 0 0 0 0 0 0 0 0 0 0 0 0 127 0" result="hardAlpha"/>
<feOffset dx="1" dy="-5"/>
<feGaussianBlur stdDeviation="2"/>
<feComposite in2="hardAlpha" operator="arithmetic" k2="-1" k3="1"/>
<feColorMatrix type="matrix" values="0 0 0 0 1 0 0 0 0 1 0 0 0 0 1 0 0 0 0.4 0"/>
<feBlend mode="normal" in2="shape" result="effect1_innerShadow"/>
</filter>
<filter id="filter32_i" x="521.012" y="292.884" width="47.0727" height="26.6338" filterUnits="userSpaceOnUse" color-interpolation-filters="sRGB">
<feFlood flood-opacity="0" result="BackgroundImageFix"/>
<feBlend mode="normal" in="SourceGraphic" in2="BackgroundImageFix" result="shape"/>
<feColorMatrix in="SourceAlpha" type="matrix" values="0 0 0 0 0 0 0 0 0 0 0 0 0 0 0 0 0 0 127 0" result="hardAlpha"/>
<feOffset dy="5"/>
<feGaussianBlur stdDeviation="2"/>
<feComposite in2="hardAlpha" operator="arithmetic" k2="-1" k3="1"/>
<feColorMatrix type="matrix" values="0 0 0 0 0.770833 0 0 0 0 0.285851 0 0 0 0 0.285851 0 0 0 0.4 0"/>
<feBlend mode="normal" in2="shape" result="effect1_innerShadow"/>
</filter>
<filter id="filter33_i" x="544.068" y="221.635" width="82.206" height="89.1656" filterUnits="userSpaceOnUse" color-interpolation-filters="sRGB">
<feFlood flood-opacity="0" result="BackgroundImageFix"/>
<feBlend mode="normal" in="SourceGraphic" in2="BackgroundImageFix" result="shape"/>
<feColorMatrix in="SourceAlpha" type="matrix" values="0 0 0 0 0 0 0 0 0 0 0 0 0 0 0 0 0 0 127 0" result="hardAlpha"/>
<feOffset dx="1" dy="-5"/>
<feGaussianBlur stdDeviation="2"/>
<feComposite in2="hardAlpha" operator="arithmetic" k2="-1" k3="1"/>
<feColorMatrix type="matrix" values="0 0 0 0 1 0 0 0 0 1 0 0 0 0 1 0 0 0 0.4 0"/>
<feBlend mode="normal" in2="shape" result="effect1_innerShadow"/>
</filter>
<filter id="filter34_i" x="506.847" y="326.105" width="138.543" height="154.55" filterUnits="userSpaceOnUse" color-interpolation-filters="sRGB">
<feFlood flood-opacity="0" result="BackgroundImageFix"/>
<feBlend mode="normal" in="SourceGraphic" in2="BackgroundImageFix" result="shape"/>
<feColorMatrix in="SourceAlpha" type="matrix" values="0 0 0 0 0 0 0 0 0 0 0 0 0 0 0 0 0 0 127 0" result="hardAlpha"/>
<feOffset dy="4"/>
<feGaussianBlur stdDeviation="2"/>
<feComposite in2="hardAlpha" operator="arithmetic" k2="-1" k3="1"/>
<feColorMatrix type="matrix" values="0 0 0 0 1 0 0 0 0 1 0 0 0 0 1 0 0 0 0.4 0"/>
<feBlend mode="normal" in2="shape" result="effect1_innerShadow"/>
</filter>
<filter id="filter35_i" x="150.408" y="143.993" width="34.7417" height="38.7417" filterUnits="userSpaceOnUse" color-interpolation-filters="sRGB">
<feFlood flood-opacity="0" result="BackgroundImageFix"/>
<feBlend mode="normal" in="SourceGraphic" in2="BackgroundImageFix" result="shape"/>
<feColorMatrix in="SourceAlpha" type="matrix" values="0 0 0 0 0 0 0 0 0 0 0 0 0 0 0 0 0 0 127 0" result="hardAlpha"/>
<feOffset dy="-5"/>
<feGaussianBlur stdDeviation="2"/>
<feComposite in2="hardAlpha" operator="arithmetic" k2="-1" k3="1"/>
<feColorMatrix type="matrix" values="0 0 0 0 0.770833 0 0 0 0 0.285851 0 0 0 0 0.285851 0 0 0 0.4 0"/>
<feBlend mode="normal" in2="shape" result="effect1_innerShadow"/>
</filter>
<filter id="filter36_i" x="124.283" y="187.45" width="86.2519" height="81.3391" filterUnits="userSpaceOnUse" color-interpolation-filters="sRGB">
<feFlood flood-opacity="0" result="BackgroundImageFix"/>
<feBlend mode="normal" in="SourceGraphic" in2="BackgroundImageFix" result="shape"/>
<feColorMatrix in="SourceAlpha" type="matrix" values="0 0 0 0 0 0 0 0 0 0 0 0 0 0 0 0 0 0 127 0" result="hardAlpha"/>
<feOffset dy="4"/>
<feGaussianBlur stdDeviation="2"/>
<feComposite in2="hardAlpha" operator="arithmetic" k2="-1" k3="1"/>
<feColorMatrix type="matrix" values="0 0 0 0 0.00833333 0 0 0 0 0.00833333 0 0 0 0 0.00833333 0 0 0 0.35 0"/>
<feBlend mode="normal" in2="shape" result="effect1_innerShadow"/>
</filter>
<filter id="filter37_i" x="104" y="278.249" width="119.426" height="13.1624" filterUnits="userSpaceOnUse" color-interpolation-filters="sRGB">
<feFlood flood-opacity="0" result="BackgroundImageFix"/>
<feBlend mode="normal" in="SourceGraphic" in2="BackgroundImageFix" result="shape"/>
<feColorMatrix in="SourceAlpha" type="matrix" values="0 0 0 0 0 0 0 0 0 0 0 0 0 0 0 0 0 0 127 0" result="hardAlpha"/>
<feOffset dy="4"/>
<feGaussianBlur stdDeviation="2"/>
<feComposite in2="hardAlpha" operator="arithmetic" k2="-1" k3="1"/>
<feColorMatrix type="matrix" values="0 0 0 0 1 0 0 0 0 1 0 0 0 0 1 0 0 0 0.3 0"/>
<feBlend mode="normal" in2="shape" result="effect1_innerShadow"/>
</filter>
<filter id="filter38_i" x="108.326" y="218.004" width="108.869" height="67.175" filterUnits="userSpaceOnUse" color-interpolation-filters="sRGB">
<feFlood flood-opacity="0" result="BackgroundImageFix"/>
<feBlend mode="normal" in="SourceGraphic" in2="BackgroundImageFix" result="shape"/>
<feColorMatrix in="SourceAlpha" type="matrix" values="0 0 0 0 0 0 0 0 0 0 0 0 0 0 0 0 0 0 127 0" result="hardAlpha"/>
<feOffset dy="4"/>
<feGaussianBlur stdDeviation="2"/>
<feComposite in2="hardAlpha" operator="arithmetic" k2="-1" k3="1"/>
<feColorMatrix type="matrix" values="0 0 0 0 1 0 0 0 0 1 0 0 0 0 1 0 0 0 0.3 0"/>
<feBlend mode="normal" in2="shape" result="effect1_innerShadow"/>
</filter>
<filter id="filter39_i" x="11.251" y="397" width="33.7987" height="48.5526" filterUnits="userSpaceOnUse" color-interpolation-filters="sRGB">
<feFlood flood-opacity="0" result="BackgroundImageFix"/>
<feBlend mode="normal" in="SourceGraphic" in2="BackgroundImageFix" result="shape"/>
<feColorMatrix in="SourceAlpha" type="matrix" values="0 0 0 0 0 0 0 0 0 0 0 0 0 0 0 0 0 0 127 0" result="hardAlpha"/>
<feOffset dx="2" dy="2"/>
<feGaussianBlur stdDeviation="0.5"/>
<feComposite in2="hardAlpha" operator="arithmetic" k2="-1" k3="1"/>
<feColorMatrix type="matrix" values="0 0 0 0 1 0 0 0 0 1 0 0 0 0 1 0 0 0 0.4 0"/>
<feBlend mode="normal" in2="shape" result="effect1_innerShadow"/>
</filter>
<filter id="filter40_i" x="23.1211" y="444.555" width="39.8789" height="20.9328" filterUnits="userSpaceOnUse" color-interpolation-filters="sRGB">
<feFlood flood-opacity="0" result="BackgroundImageFix"/>
<feBlend mode="normal" in="SourceGraphic" in2="BackgroundImageFix" result="shape"/>
<feColorMatrix in="SourceAlpha" type="matrix" values="0 0 0 0 0 0 0 0 0 0 0 0 0 0 0 0 0 0 127 0" result="hardAlpha"/>
<feOffset dx="2" dy="2"/>
<feGaussianBlur stdDeviation="0.5"/>
<feComposite in2="hardAlpha" operator="arithmetic" k2="-1" k3="1"/>
<feColorMatrix type="matrix" values="0 0 0 0 1 0 0 0 0 1 0 0 0 0 1 0 0 0 0.4 0"/>
<feBlend mode="normal" in2="shape" result="effect1_innerShadow"/>
</filter>
<filter id="filter41_i" x="2" y="470.558" width="24.3354" height="35.5101" filterUnits="userSpaceOnUse" color-interpolation-filters="sRGB">
<feFlood flood-opacity="0" result="BackgroundImageFix"/>
<feBlend mode="normal" in="SourceGraphic" in2="BackgroundImageFix" result="shape"/>
<feColorMatrix in="SourceAlpha" type="matrix" values="0 0 0 0 0 0 0 0 0 0 0 0 0 0 0 0 0 0 127 0" result="hardAlpha"/>
<feOffset dx="2" dy="2"/>
<feGaussianBlur stdDeviation="0.5"/>
<feComposite in2="hardAlpha" operator="arithmetic" k2="-1" k3="1"/>
<feColorMatrix type="matrix" values="0 0 0 0 1 0 0 0 0 1 0 0 0 0 1 0 0 0 0.25 0"/>
<feBlend mode="normal" in2="shape" result="effect1_innerShadow"/>
</filter>
<filter id="filter42_i" x="86.0801" y="431.836" width="152.727" height="86.6852" filterUnits="userSpaceOnUse" color-interpolation-filters="sRGB">
<feFlood flood-opacity="0" result="BackgroundImageFix"/>
<feBlend mode="normal" in="SourceGraphic" in2="BackgroundImageFix" result="shape"/>
<feColorMatrix in="SourceAlpha" type="matrix" values="0 0 0 0 0 0 0 0 0 0 0 0 0 0 0 0 0 0 127 0" result="hardAlpha"/>
<feOffset dx="3" dy="-3"/>
<feGaussianBlur stdDeviation="1.5"/>
<feComposite in2="hardAlpha" operator="arithmetic" k2="-1" k3="1"/>
<feColorMatrix type="matrix" values="0 0 0 0 0 0 0 0 0 0 0 0 0 0 0 0 0 0 0.5 0"/>
<feBlend mode="normal" in2="shape" result="effect1_innerShadow"/>
</filter>
<filter id="filter43_i" x="91.9199" y="386.296" width="138.055" height="97.5749" filterUnits="userSpaceOnUse" color-interpolation-filters="sRGB">
<feFlood flood-opacity="0" result="BackgroundImageFix"/>
<feBlend mode="normal" in="SourceGraphic" in2="BackgroundImageFix" result="shape"/>
<feColorMatrix in="SourceAlpha" type="matrix" values="0 0 0 0 0 0 0 0 0 0 0 0 0 0 0 0 0 0 127 0" result="hardAlpha"/>
<feOffset dy="4"/>
<feGaussianBlur stdDeviation="2"/>
<feComposite in2="hardAlpha" operator="arithmetic" k2="-1" k3="1"/>
<feColorMatrix type="matrix" values="0 0 0 0 0 0 0 0 0 0 0 0 0 0 0 0 0 0 0.3 0"/>
<feBlend mode="normal" in2="shape" result="effect1_innerShadow"/>
</filter>
<filter id="filter44_i" x="188.854" y="500.67" width="38.1494" height="4.22586" filterUnits="userSpaceOnUse" color-interpolation-filters="sRGB">
<feFlood flood-opacity="0" result="BackgroundImageFix"/>
<feBlend mode="normal" in="SourceGraphic" in2="BackgroundImageFix" result="shape"/>
<feColorMatrix in="SourceAlpha" type="matrix" values="0 0 0 0 0 0 0 0 0 0 0 0 0 0 0 0 0 0 127 0" result="hardAlpha"/>
<feOffset dx="1" dy="1"/>
<feGaussianBlur stdDeviation="0.5"/>
<feComposite in2="hardAlpha" operator="arithmetic" k2="-1" k3="1"/>
<feColorMatrix type="matrix" values="0 0 0 0 1 0 0 0 0 1 0 0 0 0 1 0 0 0 0.3 0"/>
<feBlend mode="normal" in2="shape" result="effect1_innerShadow"/>
</filter>
<filter id="filter45_i" x="210.628" y="493.846" width="16.3646" height="4.19291" filterUnits="userSpaceOnUse" color-interpolation-filters="sRGB">
<feFlood flood-opacity="0" result="BackgroundImageFix"/>
<feBlend mode="normal" in="SourceGraphic" in2="BackgroundImageFix" result="shape"/>
<feColorMatrix in="SourceAlpha" type="matrix" values="0 0 0 0 0 0 0 0 0 0 0 0 0 0 0 0 0 0 127 0" result="hardAlpha"/>
<feOffset dx="1" dy="1"/>
<feGaussianBlur stdDeviation="0.5"/>
<feComposite in2="hardAlpha" operator="arithmetic" k2="-1" k3="1"/>
<feColorMatrix type="matrix" values="0 0 0 0 1 0 0 0 0 1 0 0 0 0 1 0 0 0 0.3 0"/>
<feBlend mode="normal" in2="shape" result="effect1_innerShadow"/>
</filter>
<filter id="filter46_i" x="125.182" y="407.382" width="34.0708" height="5.24315" filterUnits="userSpaceOnUse" color-interpolation-filters="sRGB">
<feFlood flood-opacity="0" result="BackgroundImageFix"/>
<feBlend mode="normal" in="SourceGraphic" in2="BackgroundImageFix" result="shape"/>
<feColorMatrix in="SourceAlpha" type="matrix" values="0 0 0 0 0 0 0 0 0 0 0 0 0 0 0 0 0 0 127 0" result="hardAlpha"/>
<feOffset dx="1" dy="1"/>
<feGaussianBlur stdDeviation="0.5"/>
<feComposite in2="hardAlpha" operator="arithmetic" k2="-1" k3="1"/>
<feColorMatrix type="matrix" values="0 0 0 0 1 0 0 0 0 1 0 0 0 0 1 0 0 0 0.3 0"/>
<feBlend mode="normal" in2="shape" result="effect1_innerShadow"/>
</filter>
<filter id="filter47_i" x="125.186" y="398.481" width="19.1102" height="5.22052" filterUnits="userSpaceOnUse" color-interpolation-filters="sRGB">
<feFlood flood-opacity="0" result="BackgroundImageFix"/>
<feBlend mode="normal" in="SourceGraphic" in2="BackgroundImageFix" result="shape"/>
<feColorMatrix in="SourceAlpha" type="matrix" values="0 0 0 0 0 0 0 0 0 0 0 0 0 0 0 0 0 0 127 0" result="hardAlpha"/>
<feOffset dx="1" dy="1"/>
<feGaussianBlur stdDeviation="0.5"/>
<feComposite in2="hardAlpha" operator="arithmetic" k2="-1" k3="1"/>
<feColorMatrix type="matrix" values="0 0 0 0 1 0 0 0 0 1 0 0 0 0 1 0 0 0 0.3 0"/>
<feBlend mode="normal" in2="shape" result="effect1_innerShadow"/>
</filter>
<filter id="filter48_i" x="137.18" y="428.338" width="49.2939" height="5.26617" filterUnits="userSpaceOnUse" color-interpolation-filters="sRGB">
<feFlood flood-opacity="0" result="BackgroundImageFix"/>
<feBlend mode="normal" in="SourceGraphic" in2="BackgroundImageFix" result="shape"/>
<feColorMatrix in="SourceAlpha" type="matrix" values="0 0 0 0 0 0 0 0 0 0 0 0 0 0 0 0 0 0 127 0" result="hardAlpha"/>
<feOffset dx="1" dy="1"/>
<feGaussianBlur stdDeviation="0.5"/>
<feComposite in2="hardAlpha" operator="arithmetic" k2="-1" k3="1"/>
<feColorMatrix type="matrix" values="0 0 0 0 1 0 0 0 0 1 0 0 0 0 1 0 0 0 0.3 0"/>
<feBlend mode="normal" in2="shape" result="effect1_innerShadow"/>
</filter>
<filter id="filter49_i" x="137.194" y="438.05" width="49.2939" height="5.26617" filterUnits="userSpaceOnUse" color-interpolation-filters="sRGB">
<feFlood flood-opacity="0" result="BackgroundImageFix"/>
<feBlend mode="normal" in="SourceGraphic" in2="BackgroundImageFix" result="shape"/>
<feColorMatrix in="SourceAlpha" type="matrix" values="0 0 0 0 0 0 0 0 0 0 0 0 0 0 0 0 0 0 127 0" result="hardAlpha"/>
<feOffset dx="1" dy="1"/>
<feGaussianBlur stdDeviation="0.5"/>
<feComposite in2="hardAlpha" operator="arithmetic" k2="-1" k3="1"/>
<feColorMatrix type="matrix" values="0 0 0 0 1 0 0 0 0 1 0 0 0 0 1 0 0 0 0.3 0"/>
<feBlend mode="normal" in2="shape" result="effect1_innerShadow"/>
</filter>
<filter id="filter50_i" x="400.898" y="159.877" width="119.337" height="41.6571" filterUnits="userSpaceOnUse" color-interpolation-filters="sRGB">
<feFlood flood-opacity="0" result="BackgroundImageFix"/>
<feBlend mode="normal" in="SourceGraphic" in2="BackgroundImageFix" result="shape"/>
<feColorMatrix in="SourceAlpha" type="matrix" values="0 0 0 0 0 0 0 0 0 0 0 0 0 0 0 0 0 0 127 0" result="hardAlpha"/>
<feOffset dx="4" dy="4"/>
<feGaussianBlur stdDeviation="2"/>
<feComposite in2="hardAlpha" operator="arithmetic" k2="-1" k3="1"/>
<feColorMatrix type="matrix" values="0 0 0 0 1 0 0 0 0 1 0 0 0 0 1 0 0 0 0.3 0"/>
<feBlend mode="normal" in2="shape" result="effect1_innerShadow"/>
</filter>
<linearGradient id="paint0_linear" x1="418" y1="287" x2="418" y2="506" gradientUnits="userSpaceOnUse">
<stop stop-color="#70CFFF"/>
<stop offset="1" stop-color="#1989C1"/>
</linearGradient>
<linearGradient id="paint1_linear" x1="220.485" y1="356.476" x2="220.485" y2="396.102" gradientUnits="userSpaceOnUse">
<stop stop-color="#70CFFF"/>
<stop offset="1" stop-color="#1989C1"/>
</linearGradient>
<linearGradient id="paint2_linear" x1="220.484" y1="408.839" x2="220.484" y2="452.711" gradientUnits="userSpaceOnUse">
<stop stop-color="#70CFFF"/>
<stop offset="1" stop-color="#1989C1"/>
</linearGradient>
<linearGradient id="paint3_linear" x1="220.485" y1="465.448" x2="220.485" y2="505.073" gradientUnits="userSpaceOnUse">
<stop stop-color="#70CFFF"/>
<stop offset="1" stop-color="#1989C1"/>
</linearGradient>
<linearGradient id="paint4_linear" x1="569.094" y1="228.836" x2="569.094" y2="295.442" gradientUnits="userSpaceOnUse">
<stop stop-color="#FFA336"/>
<stop offset="1" stop-color="#F3881F"/>
</linearGradient>
<linearGradient id="paint5_linear" x1="611.203" y1="207.059" x2="611.203" y2="343.322" gradientUnits="userSpaceOnUse">
<stop stop-color="#FFA336"/>
<stop offset="1" stop-color="#F3881F"/>
</linearGradient>
<linearGradient id="paint6_linear" x1="562.754" y1="262.357" x2="619.709" y2="294.257" gradientUnits="userSpaceOnUse">
<stop stop-color="#FFA336"/>
<stop offset="1" stop-color="#F3881F"/>
</linearGradient>
<clipPath id="clip0">
<rect width="860" height="518.524" fill="white"/>
</clipPath>
</defs>
</svg>
